<?xml version="1.0" encoding="UTF-8" standalone="no"?>
<!DOCTYPE svg PUBLIC "-//W3C//DTD SVG 1.1//EN" "http://www.w3.org/Graphics/SVG/1.1/DTD/svg11.dtd">
<svg width="100%" height="100%" viewBox="0 0 44 44" version="1.1" xmlns="http://www.w3.org/2000/svg" xmlns:xlink="http://www.w3.org/1999/xlink" xml:space="preserve" style="fill-rule:evenodd;clip-rule:evenodd;stroke-linejoin:round;stroke-miterlimit:1.41421;">
    <path d="M21.618,43.233C9.7,43.233 0,33.591 0,21.615C0,9.7 9.7,0 21.618,0C33.532,0 43.234,9.7 43.234,21.615C43.234,33.591 33.532,43.233 21.618,43.233ZM21.618,1.016C10.24,1.016 1.017,10.24 1.017,21.616C1.017,32.993 10.24,42.215 21.618,42.215C32.994,42.215 42.215,32.993 42.215,21.616C42.215,10.299 32.995,1.016 21.618,1.016ZM39.936,27.778L39.824,27.801L39.762,27.723C39.766,27.689 40.488,25.558 40.482,23.112C40.473,20.477 39.403,18.861 38.026,18.861C37.188,18.861 36.589,19.462 36.589,20.358C36.589,21.975 38.566,22.095 38.566,25.629C38.566,27.067 38.267,28.441 37.788,29.94C35.572,37.423 28.505,40.896 21.621,40.896C18.446,40.896 16.191,40.245 15.519,39.943C15.492,39.929 15.468,39.877 15.49,39.824L15.577,39.762C15.849,39.87 17.786,40.478 20.182,40.478C22.817,40.478 24.373,39.401 24.373,38.082C24.373,37.247 23.714,36.588 22.875,36.588C21.258,36.588 21.139,38.623 17.666,38.623C16.169,38.623 14.854,38.324 13.294,37.845C5.868,35.569 2.329,28.561 2.335,21.615C2.338,18.232 3.285,15.54 3.301,15.512L3.408,15.494L3.471,15.572C3.383,15.851 2.754,17.784 2.754,20.177C2.754,22.812 3.831,24.368 5.208,24.368C5.987,24.368 6.647,23.769 6.647,22.93C6.647,21.313 4.669,21.134 4.669,17.66C4.669,16.163 4.969,14.846 5.447,13.289C7.725,5.868 14.731,2.387 21.618,2.334C24.818,2.31 27.619,3.268 27.724,3.352L27.743,3.46L27.664,3.52C27.631,3.516 25.81,2.754 23.055,2.754C20.48,2.753 18.864,3.831 18.864,5.209C18.864,5.987 19.463,6.647 20.361,6.647C21.978,6.647 22.098,4.67 25.57,4.67C27.067,4.67 28.383,4.969 29.942,5.449C37.426,7.723 40.838,14.791 40.899,21.616C40.932,25.113 39.946,27.759 39.936,27.778ZM29.641,22.635C27.606,22.635 26.047,24.133 26.047,25.928C26.047,27.425 26.944,28.621 28.144,28.621C28.564,28.621 28.982,28.381 28.982,27.843C28.982,27.066 27.95,26.875 28.03,25.711C28.081,24.942 28.804,24.43 29.521,24.43C30.959,24.43 31.63,25.824 31.63,27.259C31.569,29.475 29.941,31.017 28.025,31.017C25.507,31.017 23.894,28.621 23.894,26.047C23.894,22.214 26.408,20.717 27.725,20.359C27.739,20.358 31.168,20.971 31.062,19.46C31.015,18.796 30.026,18.54 29.308,18.511C28.514,18.48 27.713,18.766 27.713,18.766C27.294,18.555 27.005,18.143 26.827,17.665C29.282,15.809 31.017,14.013 31.017,11.977C31.017,10.899 30.297,9.94 28.92,9.94C26.465,9.94 24.608,13.054 24.608,15.869C24.608,16.348 24.608,16.827 24.729,17.248C23.17,18.385 22.014,19.091 19.917,20.349C19.917,20.086 19.973,19.411 20.147,18.534C20.866,17.755 21.852,16.59 21.852,15.691C21.852,15.272 21.614,14.913 21.132,14.913C19.936,14.913 19.036,16.71 18.798,17.967C18.258,18.626 17.182,19.466 16.282,19.466C15.563,19.466 15.325,18.806 15.263,18.568C17.538,17.789 20.354,14.674 20.354,11.86C20.354,11.261 20.115,9.944 18.318,9.944C15.623,9.944 13.347,13.957 13.347,17.069C12.389,17.069 12.03,16.051 12.03,15.274C12.03,14.496 12.329,13.716 12.329,13.478C12.329,13.237 12.209,12.938 11.85,12.938C10.951,12.938 10.412,14.135 10.412,15.513C10.474,17.43 11.73,18.627 13.407,18.747C13.645,19.885 14.664,20.962 15.921,20.962C16.7,20.962 17.658,20.723 18.317,20.125C18.255,20.544 18.197,20.902 18.137,21.262C15.501,22.64 13.585,23.598 11.849,25.154C10.476,26.411 9.697,28.087 9.697,29.404C9.697,31.2 10.836,32.877 13.171,32.877C15.926,32.877 18.023,30.661 19.039,27.607C19.52,26.17 19.711,24.08 19.831,22.163C22.585,20.606 23.892,19.705 25.327,18.685C25.506,18.984 25.688,19.225 25.928,19.404C24.669,20.063 21.677,21.92 21.677,26.291C21.677,29.405 23.774,32.877 27.904,32.877C31.318,32.877 33.653,30.064 33.653,27.37C33.653,24.91 32.275,22.635 29.641,22.635ZM13.174,31.017C12.277,31.058 11.679,30.484 11.679,29.527C11.679,26.953 15.247,24.496 17.943,23.176C17.463,26.77 16.25,30.876 13.174,31.017ZM15.15,16.886C15.15,14.909 17.1,11.153 18.293,11.55C19.7,12.019 17.126,15.808 15.15,16.886ZM26.468,15.987C26.468,13.533 28.13,11.144 29.038,11.598C30.072,12.116 28.265,14.43 26.468,15.987Z" style="fill:white;fill-rule:nonzero;"/>
</svg>
