<?xml version="1.0" encoding="UTF-8" standalone="no"?>
<!DOCTYPE svg PUBLIC "-//W3C//DTD SVG 1.1//EN" "http://www.w3.org/Graphics/SVG/1.1/DTD/svg11.dtd">
<svg width="100%" height="100%" viewBox="0 0 1038 288" version="1.1" xmlns="http://www.w3.org/2000/svg" xmlns:xlink="http://www.w3.org/1999/xlink" xml:space="preserve" style="fill-rule:evenodd;clip-rule:evenodd;stroke-linejoin:round;stroke-miterlimit:1.41421;">
    <g transform="matrix(4.16667,0,0,4.16667,0,0)">
        <path d="M56.915,57.793C53.128,61.578 48.812,64.246 44.055,65.75C40.953,66.768 37.604,67.255 34.109,67.255C31.537,67.255 29.064,67.011 26.736,66.479C20.91,65.168 15.771,62.259 11.255,57.793C4.948,51.435 1.795,43.818 1.795,34.938C1.795,26.012 4.948,18.343 11.255,12.036C15.771,7.523 20.91,4.614 26.736,3.352C29.064,2.817 31.537,2.577 34.109,2.577C37.604,2.577 40.953,3.059 44.055,4.031C48.812,5.534 53.128,8.204 56.915,12.036C63.222,18.343 66.424,26.012 66.424,34.938L66.377,34.938C66.377,43.818 63.222,51.435 56.915,57.793ZM58.176,10.822C54.002,6.649 49.296,3.789 44.055,2.233C40.904,1.313 37.604,0.876 34.109,0.876C31.537,0.876 29.064,1.119 26.736,1.606C20.475,2.915 14.896,6.019 10.042,10.873C3.347,17.568 0,25.577 0,34.938C0,44.305 3.347,52.31 10.042,59.004C14.896,63.858 20.475,66.966 26.736,68.272C29.064,68.759 31.537,69 34.109,69C37.604,69 40.904,68.565 44.055,67.595C49.296,66.041 54.002,63.179 58.176,59.004C64.823,52.31 68.17,44.305 68.17,34.938C68.17,25.526 64.875,17.52 58.176,10.822Z" style="fill:white;fill-rule:nonzero;"/>
        <path d="M26.735,25.089C27.074,24.699 27.365,24.314 27.704,23.878C28.869,22.274 29.453,20.964 29.453,19.995C29.453,19.653 29.356,19.411 29.162,19.267C28.579,18.83 27.752,19.267 26.735,20.529C26.493,20.818 26.25,21.158 26.006,21.548C24.696,23.585 24.017,25.477 24.017,27.223C24.937,26.788 25.861,26.061 26.735,25.089Z" style="fill:white;fill-rule:nonzero;"/>
        <path d="M44.056,23.827C44.252,23.585 44.495,23.342 44.688,23.053C45.708,21.788 46.24,20.818 46.24,20.092C46.24,19.753 46.095,19.51 45.803,19.267C45.318,18.927 44.736,19.17 44.056,19.944C43.814,20.189 43.571,20.529 43.33,20.916C42.36,22.517 41.874,24.118 41.874,25.815C42.551,25.383 43.281,24.699 44.056,23.827Z" style="fill:white;fill-rule:nonzero;"/>
        <path d="M21.251,42.46C19.601,44.305 18.727,45.906 18.727,47.262C18.727,48.042 19.02,48.62 19.504,49.06C19.991,49.4 20.524,49.594 21.008,49.594C22.564,49.594 24.065,48.378 25.57,46.001C26.005,45.275 26.396,44.546 26.735,43.77C27.561,41.876 28.094,39.792 28.287,37.464C27.752,37.706 27.219,37.994 26.735,38.238C24.456,39.499 22.612,40.908 21.251,42.46Z" style="fill:white;fill-rule:nonzero;"/>
        <path d="M50.607,49.979C49.006,51.728 46.821,52.65 44.055,52.65L43.96,52.65C40.953,52.65 38.525,51.583 36.827,49.495C35.08,47.361 34.206,44.934 34.206,42.216C34.206,39.404 34.983,37.074 36.485,35.278C38.041,33.482 39.545,32.171 41.049,31.448C41.001,31.348 40.904,31.251 40.71,31.154C40.564,31.057 40.32,30.767 40.029,30.28C38.283,31.542 36.73,32.562 35.323,33.434C33.915,34.308 32.605,35.084 31.345,35.763C30.908,39.889 30.423,42.947 29.841,44.934C29.26,46.874 28.241,48.62 26.736,50.176C26.688,50.224 26.637,50.273 26.588,50.323C24.987,51.87 23.144,52.65 21.009,52.65C19.407,52.65 18.099,52.163 17.033,51.241C16.01,50.273 15.478,48.913 15.478,47.214C15.478,45.519 16.303,43.624 17.856,41.443C19.264,39.546 22.22,37.512 26.736,35.278C27.365,34.94 27.998,34.647 28.724,34.308L28.967,32.562C28.192,33.045 27.462,33.385 26.736,33.63C26.2,33.775 25.717,33.824 25.23,33.824C23.193,33.824 21.836,32.707 21.203,30.38C19.745,30.183 18.679,29.602 18.05,28.582C17.369,27.564 17.033,26.351 17.033,24.992C17.033,23.924 17.224,23.051 17.611,22.274C17.953,21.499 18.437,21.109 18.97,21.109C19.31,21.109 19.506,21.352 19.506,21.787C19.506,21.935 19.458,22.42 19.31,23.098C19.167,23.779 19.118,24.311 19.118,24.798C19.118,25.428 19.264,26.012 19.555,26.497C19.844,27.029 20.329,27.468 21.058,27.759C21.058,24.311 21.933,21.548 23.676,19.508C24.696,18.343 25.717,17.52 26.736,17.033C27.511,16.645 28.287,16.452 29.112,16.452C29.741,16.452 30.423,16.693 31.103,17.129C31.782,17.568 32.121,18.442 32.121,19.753C32.121,21.548 31.391,23.488 29.938,25.524C29.015,26.787 27.947,27.852 26.736,28.679C25.959,29.262 25.135,29.698 24.21,30.086C24.406,31.106 24.939,31.591 25.862,31.591C26.152,31.591 26.443,31.542 26.736,31.448C27.656,31.154 28.627,30.425 29.646,29.213C30.132,27.613 30.713,26.4 31.488,25.575C32.218,24.798 32.896,24.359 33.48,24.359C34.206,24.359 34.545,24.798 34.545,25.622C34.545,26.109 34.352,26.787 33.964,27.613C33.528,28.437 32.947,29.262 32.121,30.086L31.585,32.952L39.009,28.048C39.009,24.359 39.739,21.548 41.242,19.605C42.115,18.392 43.038,17.568 44.055,17.129C44.688,16.841 45.365,16.693 45.998,16.693C46.92,16.693 47.695,16.938 48.231,17.471C48.812,17.955 49.103,18.685 49.103,19.605C49.103,20.77 48.57,22.126 47.501,23.682C46.724,24.798 45.562,26.012 44.055,27.322C43.525,27.71 42.989,28.145 42.407,28.582C42.504,29.069 42.698,29.454 43.038,29.747C43.377,30.04 43.669,30.232 43.96,30.425C43.96,30.425 44.009,30.425 44.055,30.38C44.785,30.183 45.562,30.086 46.385,30.086C48.18,30.086 49.103,30.572 49.103,31.542C49.103,31.978 48.812,32.368 48.279,32.707C47.695,32.997 46.92,33.191 45.901,33.191C45.416,33.191 44.785,33.094 44.055,32.952L43.96,32.952C41.923,33.482 40.368,34.647 39.303,36.395C38.283,38.091 37.796,39.889 37.796,41.731C37.796,43.915 38.38,45.805 39.593,47.309C40.758,48.818 42.261,49.592 44.055,49.592L44.106,49.592C45.901,49.592 47.311,49.012 48.328,47.846C49.394,46.685 49.929,45.37 49.929,43.865C49.929,42.654 49.587,41.587 49.006,40.712C48.377,39.792 47.598,39.352 46.724,39.352C46.095,39.352 45.562,39.546 45.077,39.938C44.642,40.277 44.397,40.856 44.397,41.637C44.397,42.216 44.59,42.753 45.026,43.236C45.462,43.77 45.659,44.258 45.659,44.74C45.659,45.563 45.22,45.954 44.3,45.954L44.055,45.954C43.234,45.904 42.55,45.519 42.021,44.837C41.436,44.111 41.194,43.139 41.194,41.973C41.194,40.567 41.679,39.352 42.65,38.235C43.038,37.8 43.525,37.412 44.055,37.171C44.833,36.783 45.707,36.589 46.775,36.589C48.619,36.589 50.17,37.317 51.285,38.772C52.45,40.227 53.032,41.925 53.032,43.915C53.032,46.147 52.211,48.185 50.607,49.979ZM44.055,8.543C42.89,8.349 41.727,8.3 40.514,8.3C38.573,8.3 36.876,8.785 35.419,9.805C33.964,10.822 32.896,11.358 32.314,11.358C31.636,11.358 31.052,11.115 30.665,10.725C30.226,10.289 29.984,9.756 29.984,9.174C29.984,8.106 30.568,7.184 31.733,6.409C32.85,5.631 34.545,5.195 36.827,5.195C38.138,5.195 39.351,5.292 40.419,5.437C41.436,5.534 42.65,5.776 44.055,6.022C40.758,5.002 37.41,4.466 34.012,4.466C31.44,4.466 29.015,4.759 26.736,5.292C22.317,6.409 18.485,8.543 15.087,11.696C9.996,16.548 7.423,22.274 7.423,28.875C7.423,30.521 7.957,32.077 8.976,33.53C9.996,35.037 10.529,36.154 10.529,36.925C10.529,37.512 10.287,37.999 9.848,38.384C9.413,38.772 8.877,38.966 8.248,38.966C7.229,38.966 6.307,38.429 5.484,37.317C4.706,36.248 4.319,34.599 4.319,32.414C4.319,31.057 4.367,29.844 4.56,28.875C4.706,27.852 4.997,26.689 5.387,25.332L5.241,25.187C4.125,28.728 3.541,32.171 3.541,35.473C3.541,42.947 6.016,49.154 10.964,54.155C15.478,58.715 20.768,61.189 26.736,61.53C27.269,61.578 27.751,61.578 28.287,61.578C29.938,61.578 31.44,61.093 32.85,60.073C34.257,59.104 35.323,58.569 36.004,58.569C37.507,58.569 38.237,59.297 38.237,60.702C38.237,61.771 37.701,62.691 36.536,63.47C35.371,64.246 33.673,64.634 31.44,64.634C30.132,64.634 28.916,64.537 27.705,64.393C27.414,64.345 27.076,64.295 26.736,64.246C25.862,64.052 24.939,63.908 24.016,63.711C24.89,64.004 25.814,64.295 26.736,64.487C29.161,65.119 31.636,65.412 34.061,65.412C37.65,65.412 40.953,64.828 44.055,63.711C47.357,62.5 50.365,60.608 53.032,58.086C58.276,53.18 60.895,47.458 60.895,40.856C60.895,39.11 60.358,37.462 59.39,36.007C58.373,34.55 57.886,33.53 57.886,32.952C57.886,32.269 58.08,31.735 58.516,31.3C58.954,30.861 59.487,30.667 60.119,30.667C61.186,30.667 62.108,31.203 62.882,32.368C63.71,33.482 64.096,35.184 64.096,37.462C64.096,39.16 63.951,40.615 63.71,41.779C63.467,42.897 63.222,43.915 63.077,44.837C64.047,41.393 64.581,37.999 64.581,34.647C64.581,27.029 62.205,20.722 57.499,15.773C53.665,11.696 49.151,9.272 44.055,8.543Z" style="fill:white;fill-rule:nonzero;"/>
        <path d="M211.969,22.813L218.179,22.813L218.179,32.207L230.761,32.207L230.761,22.813L236.97,22.813L236.97,46.28L230.761,46.28L230.761,35.931L218.179,35.931L218.179,46.28L211.969,46.28L211.969,22.813Z" style="fill:white;"/>
        <path d="M95.51,22.813L101.721,22.813L101.721,32.207L114.3,32.207L114.3,22.813L120.549,22.813L120.549,46.28L114.3,46.28L114.3,35.931L101.721,35.931L101.721,46.28L95.51,46.28L95.51,22.813Z" style="fill:white;"/>
        <rect x="125.689" y="22.813" width="6.29" height="23.467" style="fill:white;"/>
        <rect x="241.994" y="22.813" width="6.289" height="23.467" style="fill:white;"/>
        <path d="M134.278,22.813L158.706,22.813L158.706,26.726L149.578,26.726L149.578,46.28L143.404,46.28L143.404,26.726L134.278,26.726L134.278,22.813Z" style="fill:white;"/>
        <path d="M174.273,41.026L176.421,46.283L183.439,46.283L172.357,22.854L164.494,22.854L153.334,46.283L160.313,46.283L162.503,41.026L174.273,41.026ZM164.076,37.308L168.407,26.841L172.703,37.308L164.076,37.308Z" style="fill:white;"/>
        <path d="M202.342,30.79L208.71,30.79C208.634,26.535 204.953,22.47 196.399,22.393C190.032,22.354 182.325,24.963 182.287,34.511C182.25,43.981 190.112,46.931 196.399,46.779C202.19,46.588 208.634,44.977 208.898,37.847L202.495,37.883C202.304,42.332 198.739,43.212 196.399,43.252C193.982,43.252 189.038,42.753 188.96,34.624C188.883,26.956 193.407,25.883 196.399,25.883C199.354,25.919 202.304,27.302 202.342,30.79Z" style="fill:white;"/>
    </g>
</svg>
