<?xml version="1.0" encoding="UTF-8" standalone="no"?>
<!DOCTYPE svg PUBLIC "-//W3C//DTD SVG 1.1//EN" "http://www.w3.org/Graphics/SVG/1.1/DTD/svg11.dtd">
<svg width="100%" height="100%" viewBox="0 0 75 75" version="1.1" xmlns="http://www.w3.org/2000/svg" xmlns:xlink="http://www.w3.org/1999/xlink" xml:space="preserve" style="fill-rule:evenodd;clip-rule:evenodd;stroke-linejoin:round;">
    <g id="g1">
        <path id="polygon1" d="M39.389,13.769L22.235,28.606L6,28.606L6,47.699L21.989,47.699L39.389,62.75L39.389,13.769Z" style="fill:white;fill-rule:nonzero;stroke:white;stroke-width:5px;"/>
        <path id="path1" d="M48.24,25.085L48.385,25.1L48.528,25.124L48.67,25.157L48.809,25.197L48.946,25.246L49.08,25.302L49.211,25.367L49.338,25.438L49.46,25.517L49.577,25.603L49.689,25.696L49.796,25.794L49.897,25.899L49.991,26.01L50.079,26.126L50.16,26.247L50.258,26.403L50.36,26.568L50.461,26.735L50.56,26.903L50.658,27.071L50.755,27.241L50.85,27.411L50.944,27.582L51.037,27.754L51.128,27.927L51.218,28.101L51.306,28.276L51.393,28.452L51.478,28.628L51.562,28.806L51.645,28.984L51.726,29.163L51.805,29.343L51.883,29.524L51.96,29.705L52.035,29.888L52.108,30.071L52.18,30.255L52.25,30.44L52.319,30.625L52.386,30.811L52.452,30.998L52.516,31.186L52.579,31.375L52.64,31.564L52.699,31.754L52.756,31.945L52.812,32.136L52.867,32.328L52.92,32.521L52.971,32.715L53.02,32.909L53.068,33.104L53.114,33.3L53.158,33.496L53.201,33.693L53.242,33.89L53.281,34.088L53.318,34.287L53.354,34.486L53.388,34.686L53.42,34.887L53.451,35.088L53.479,35.29L53.506,35.492L53.531,35.695L53.555,35.898L53.576,36.102L53.596,36.306L53.613,36.511L53.629,36.717L53.644,36.923L53.656,37.129L53.666,37.336L53.675,37.543L53.681,37.751L53.686,37.959L53.689,38.168L53.69,38.377L53.689,38.583L53.686,38.788L53.682,38.993L53.675,39.198L53.667,39.402L53.657,39.606L53.645,39.809L53.631,40.012L53.616,40.214L53.598,40.416L53.579,40.617L53.558,40.818L53.535,41.018L53.511,41.218L53.485,41.417L53.457,41.616L53.427,41.814L53.396,42.012L53.363,42.209L53.328,42.405L53.292,42.601L53.254,42.796L53.214,42.991L53.172,43.185L53.129,43.378L53.084,43.571L53.038,43.763L52.99,43.955L52.94,44.146L52.889,44.336L52.836,44.525L52.781,44.714L52.725,44.902L52.667,45.09L52.608,45.276L52.547,45.462L52.485,45.648L52.421,45.832L52.356,46.016L52.289,46.199L52.22,46.382L52.15,46.563L52.079,46.744L52.006,46.924L51.932,47.103L51.856,47.282L51.778,47.46L51.7,47.636L51.619,47.813L51.538,47.988L51.455,48.162L51.37,48.336L51.284,48.509L51.197,48.681L51.109,48.852L51.018,49.022L50.927,49.191L50.834,49.36L50.74,49.527L50.645,49.694L50.548,49.86L50.45,50.025L50.351,50.189L50.255,50.343L50.175,50.465L50.088,50.581L49.995,50.693L49.895,50.798L49.789,50.898L49.678,50.992L49.561,51.078L49.44,51.158L49.314,51.231L49.184,51.296L49.05,51.354L48.913,51.403L48.774,51.445L48.633,51.479L48.489,51.504L48.345,51.521L48.2,51.529L48.054,51.529L47.909,51.52L47.765,51.503L47.622,51.478L47.48,51.445L47.341,51.403L47.204,51.353L47.071,51.295L46.941,51.23L46.815,51.157L46.693,51.077L46.577,50.99L46.465,50.897L46.36,50.797L46.26,50.691L46.166,50.58L46.08,50.463L46,50.342L45.927,50.216L45.862,50.086L45.804,49.952L45.755,49.815L45.713,49.676L45.679,49.535L45.654,49.391L45.637,49.247L45.629,49.102L45.629,48.956L45.638,48.811L45.655,48.667L45.68,48.524L45.713,48.382L45.755,48.243L45.805,48.106L45.863,47.973L45.928,47.843L46.001,47.717L46.085,47.58L46.163,47.451L46.24,47.322L46.316,47.192L46.39,47.062L46.464,46.93L46.537,46.798L46.608,46.666L46.679,46.533L46.748,46.399L46.816,46.264L46.883,46.129L46.949,45.994L47.014,45.857L47.078,45.721L47.141,45.583L47.202,45.445L47.263,45.306L47.322,45.167L47.38,45.027L47.437,44.887L47.492,44.746L47.547,44.604L47.6,44.462L47.652,44.32L47.703,44.177L47.753,44.033L47.802,43.889L47.849,43.744L47.895,43.598L47.94,43.453L47.983,43.306L48.026,43.16L48.067,43.012L48.107,42.864L48.146,42.716L48.183,42.567L48.219,42.418L48.254,42.268L48.287,42.118L48.32,41.967L48.351,41.816L48.38,41.664L48.409,41.512L48.436,41.359L48.461,41.206L48.486,41.053L48.509,40.899L48.53,40.744L48.551,40.589L48.57,40.434L48.587,40.278L48.604,40.122L48.618,39.966L48.632,39.809L48.644,39.651L48.655,39.493L48.664,39.335L48.672,39.176L48.678,39.017L48.683,38.858L48.687,38.698L48.689,38.538L48.69,38.377L48.689,38.214L48.687,38.051L48.683,37.888L48.678,37.726L48.671,37.564L48.663,37.403L48.654,37.242L48.643,37.081L48.63,36.921L48.616,36.762L48.601,36.603L48.584,36.444L48.566,36.286L48.547,36.128L48.526,35.971L48.504,35.814L48.48,35.657L48.455,35.502L48.428,35.346L48.401,35.191L48.372,35.037L48.341,34.883L48.309,34.729L48.276,34.576L48.242,34.423L48.206,34.271L48.169,34.12L48.13,33.969L48.091,33.818L48.05,33.669L48.007,33.519L47.964,33.37L47.919,33.222L47.873,33.074L47.825,32.927L47.777,32.78L47.727,32.634L47.676,32.488L47.624,32.343L47.57,32.199L47.515,32.055L47.459,31.911L47.402,31.769L47.343,31.626L47.284,31.485L47.223,31.344L47.161,31.203L47.098,31.064L47.033,30.925L46.968,30.786L46.901,30.648L46.833,30.511L46.764,30.374L46.694,30.239L46.623,30.103L46.551,29.969L46.477,29.835L46.403,29.701L46.327,29.569L46.25,29.437L46.172,29.306L46.093,29.175L46.013,29.045L45.926,28.907L45.853,28.782L45.786,28.653L45.727,28.52L45.677,28.383L45.634,28.244L45.599,28.103L45.573,27.96L45.554,27.816L45.545,27.671L45.544,27.525L45.551,27.38L45.566,27.235L45.59,27.092L45.623,26.95L45.663,26.811L45.712,26.674L45.768,26.54L45.833,26.409L45.904,26.282L45.983,26.16L46.069,26.043L46.162,25.931L46.26,25.824L46.365,25.723L46.476,25.629L46.592,25.541L46.713,25.46L46.838,25.387L46.967,25.32L47.1,25.261L47.237,25.211L47.376,25.168L47.517,25.133L47.66,25.107L47.804,25.088L47.949,25.079L48.095,25.078L48.24,25.085Z" style="fill:white;"/>
        <path id="path2" d="M55.183,18.039L55.369,18.054L55.554,18.082L55.736,18.124L55.914,18.18L56.088,18.248L56.256,18.33L56.418,18.424L56.572,18.53L56.718,18.647L56.855,18.774L56.982,18.912L57.098,19.058L57.277,19.303L57.461,19.558L57.642,19.816L57.822,20.076L57.998,20.337L58.172,20.6L58.344,20.865L58.513,21.132L58.68,21.401L58.844,21.671L59.006,21.943L59.165,22.217L59.321,22.492L59.475,22.769L59.626,23.048L59.775,23.328L59.921,23.61L60.064,23.894L60.205,24.179L60.343,24.466L60.478,24.754L60.61,25.044L60.74,25.336L60.867,25.628L60.991,25.923L61.112,26.219L61.23,26.516L61.346,26.815L61.459,27.115L61.568,27.417L61.675,27.72L61.779,28.024L61.88,28.33L61.979,28.637L62.074,28.945L62.166,29.255L62.254,29.562L62.298,29.721L62.341,29.878L62.383,30.034L62.424,30.191L62.465,30.348L62.504,30.506L62.543,30.664L62.581,30.822L62.619,30.98L62.655,31.139L62.691,31.298L62.726,31.457L62.76,31.616L62.794,31.776L62.826,31.936L62.858,32.097L62.889,32.257L62.92,32.418L62.949,32.58L62.978,32.741L63.006,32.903L63.033,33.065L63.059,33.227L63.085,33.39L63.11,33.553L63.133,33.716L63.157,33.879L63.179,34.043L63.2,34.206L63.221,34.37L63.241,34.535L63.26,34.699L63.278,34.864L63.295,35.029L63.312,35.195L63.327,35.36L63.342,35.526L63.356,35.692L63.37,35.858L63.382,36.025L63.393,36.191L63.404,36.358L63.414,36.525L63.423,36.693L63.431,36.86L63.438,37.028L63.445,37.196L63.45,37.364L63.455,37.532L63.459,37.701L63.462,37.87L63.464,38.039L63.466,38.208L63.466,38.377L63.466,38.545L63.464,38.712L63.462,38.88L63.459,39.047L63.455,39.214L63.451,39.381L63.445,39.547L63.439,39.714L63.432,39.88L63.424,40.046L63.415,40.212L63.405,40.377L63.395,40.543L63.383,40.708L63.371,40.873L63.358,41.038L63.344,41.202L63.33,41.366L63.314,41.53L63.298,41.694L63.281,41.858L63.263,42.021L63.245,42.184L63.225,42.347L63.205,42.51L63.184,42.672L63.162,42.834L63.139,42.996L63.116,43.158L63.091,43.319L63.066,43.48L63.04,43.641L63.014,43.802L62.986,43.962L62.958,44.122L62.929,44.282L62.899,44.442L62.869,44.601L62.837,44.76L62.805,44.922L62.739,45.235L62.669,45.551L62.596,45.865L62.521,46.178L62.442,46.49L62.36,46.801L62.275,47.111L62.188,47.419L62.097,47.726L62.004,48.032L61.907,48.336L61.808,48.64L61.705,48.942L61.6,49.242L61.492,49.541L61.381,49.839L61.268,50.136L61.151,50.431L61.032,50.724L60.91,51.016L60.785,51.307L60.657,51.596L60.527,51.884L60.394,52.17L60.259,52.455L60.12,52.738L59.979,53.02L59.836,53.3L59.69,53.578L59.541,53.855L59.39,54.131L59.236,54.404L59.079,54.676L58.92,54.946L58.759,55.215L58.595,55.482L58.428,55.747L58.259,56.011L58.088,56.272L57.914,56.532L57.737,56.79L57.559,57.047L57.378,57.301L57.201,57.544L57.086,57.692L56.96,57.83L56.824,57.958L56.679,58.076L56.525,58.182L56.364,58.277L56.196,58.359L56.022,58.429L55.844,58.486L55.662,58.529L55.478,58.558L55.291,58.573L55.104,58.575L54.918,58.562L54.733,58.536L54.55,58.496L54.371,58.442L54.197,58.375L54.027,58.296L53.865,58.203L53.71,58.099L53.562,57.984L53.424,57.858L53.296,57.722L53.178,57.577L53.072,57.423L52.977,57.262L52.895,57.094L52.825,56.92L52.768,56.742L52.725,56.56L52.696,56.376L52.681,56.189L52.679,56.002L52.692,55.816L52.718,55.631L52.758,55.448L52.812,55.269L52.879,55.095L52.958,54.925L53.051,54.763L53.155,54.608L53.317,54.384L53.47,54.168L53.622,53.951L53.771,53.733L53.918,53.512L54.063,53.291L54.206,53.068L54.347,52.843L54.486,52.618L54.623,52.39L54.757,52.162L54.89,51.931L55.02,51.7L55.148,51.467L55.274,51.233L55.398,50.997L55.519,50.761L55.638,50.522L55.755,50.283L55.87,50.042L55.982,49.8L56.092,49.557L56.2,49.312L56.306,49.067L56.409,48.82L56.509,48.572L56.608,48.322L56.704,48.072L56.798,47.82L56.889,47.567L56.978,47.313L57.064,47.058L57.148,46.802L57.23,46.545L57.309,46.287L57.385,46.027L57.459,45.767L57.531,45.505L57.6,45.243L57.667,44.979L57.731,44.714L57.792,44.449L57.851,44.182L57.908,43.912L57.934,43.781L57.961,43.646L57.986,43.512L58.012,43.377L58.036,43.242L58.06,43.106L58.083,42.971L58.106,42.835L58.128,42.699L58.149,42.563L58.169,42.426L58.189,42.29L58.208,42.153L58.227,42.016L58.245,41.878L58.262,41.741L58.278,41.603L58.294,41.465L58.309,41.327L58.324,41.188L58.338,41.049L58.351,40.911L58.363,40.772L58.375,40.632L58.386,40.493L58.396,40.353L58.406,40.213L58.414,40.073L58.423,39.933L58.43,39.792L58.437,39.652L58.443,39.511L58.448,39.37L58.453,39.229L58.457,39.087L58.46,38.945L58.463,38.804L58.465,38.662L58.466,38.519L58.466,38.377L58.466,38.233L58.465,38.09L58.463,37.946L58.46,37.803L58.457,37.66L58.453,37.517L58.448,37.375L58.443,37.232L58.436,37.09L58.43,36.948L58.422,36.806L58.414,36.665L58.404,36.523L58.395,36.382L58.384,36.241L58.373,36.1L58.361,35.96L58.349,35.82L58.335,35.679L58.321,35.54L58.307,35.4L58.291,35.26L58.275,35.121L58.258,34.982L58.241,34.843L58.223,34.705L58.204,34.566L58.184,34.428L58.164,34.29L58.143,34.152L58.122,34.015L58.099,33.878L58.077,33.741L58.053,33.604L58.029,33.467L58.004,33.331L57.978,33.195L57.952,33.059L57.925,32.924L57.897,32.788L57.869,32.653L57.84,32.518L57.81,32.384L57.78,32.249L57.749,32.115L57.718,31.981L57.686,31.848L57.653,31.714L57.619,31.581L57.585,31.449L57.55,31.316L57.515,31.184L57.479,31.052L57.443,30.923L57.367,30.657L57.289,30.396L57.208,30.135L57.125,29.876L57.04,29.617L56.952,29.36L56.862,29.104L56.769,28.849L56.674,28.596L56.576,28.343L56.476,28.092L56.373,27.842L56.269,27.593L56.161,27.345L56.052,27.099L55.94,26.854L55.825,26.61L55.709,26.368L55.59,26.126L55.469,25.886L55.345,25.648L55.22,25.411L55.092,25.175L54.962,24.941L54.829,24.708L54.695,24.476L54.558,24.246L54.419,24.017L54.278,23.79L54.135,23.564L53.989,23.34L53.842,23.117L53.692,22.895L53.541,22.676L53.387,22.457L53.231,22.241L53.066,22.016L52.961,21.861L52.868,21.699L52.788,21.53L52.72,21.356L52.665,21.177L52.624,20.995L52.597,20.81L52.583,20.623L52.584,20.436L52.599,20.25L52.627,20.065L52.669,19.883L52.725,19.705L52.793,19.531L52.875,19.363L52.969,19.201L53.075,19.047L53.192,18.901L53.319,18.764L53.457,18.637L53.603,18.521L53.758,18.416L53.92,18.323L54.089,18.243L54.263,18.175L54.442,18.12L54.624,18.079L54.809,18.052L54.996,18.038L55.183,18.039Z" style="fill:white;"/>
        <path id="path11" d="M61.896,11.527L62.112,11.561L62.323,11.614L62.529,11.686L62.728,11.775L62.919,11.881L63.1,12.003L63.269,12.141L63.425,12.292L63.568,12.457L63.697,12.619L63.828,12.787L63.959,12.955L64.089,13.124L64.218,13.294L64.346,13.464L64.473,13.635L64.6,13.807L64.725,13.98L64.85,14.153L64.974,14.326L65.097,14.501L65.219,14.676L65.34,14.852L65.461,15.028L65.58,15.205L65.699,15.383L65.816,15.561L65.933,15.74L66.049,15.92L66.164,16.1L66.279,16.281L66.392,16.462L66.504,16.644L66.616,16.827L66.726,17.01L66.836,17.194L66.945,17.379L67.052,17.564L67.159,17.75L67.265,17.936L67.37,18.123L67.474,18.311L67.578,18.499L67.68,18.688L67.781,18.877L67.881,19.067L67.981,19.258L68.079,19.449L68.177,19.641L68.273,19.833L68.369,20.026L68.463,20.219L68.557,20.413L68.65,20.607L68.741,20.803L68.832,20.998L68.922,21.194L69.01,21.391L69.098,21.588L69.185,21.786L69.271,21.984L69.355,22.183L69.439,22.383L69.522,22.583L69.604,22.783L69.684,22.984L69.764,23.185L69.843,23.387L69.92,23.59L69.997,23.793L70.073,23.996L70.147,24.2L70.221,24.405L70.293,24.61L70.365,24.816L70.435,25.022L70.505,25.228L70.573,25.435L70.64,25.642L70.706,25.85L70.772,26.059L70.836,26.268L70.899,26.477L70.961,26.687L71.022,26.897L71.081,27.108L71.14,27.319L71.198,27.53L71.254,27.742L71.31,27.955L71.364,28.168L71.418,28.381L71.47,28.595L71.521,28.809L71.571,29.024L71.62,29.239L71.667,29.454L71.714,29.67L71.759,29.887L71.804,30.103L71.847,30.32L71.889,30.538L71.93,30.756L71.97,30.974L72.009,31.193L72.046,31.412L72.083,31.632L72.118,31.851L72.152,32.072L72.185,32.292L72.217,32.513L72.248,32.735L72.277,32.956L72.306,33.179L72.333,33.401L72.359,33.624L72.384,33.847L72.407,34.07L72.43,34.294L72.451,34.518L72.471,34.743L72.49,34.968L72.508,35.193L72.524,35.418L72.539,35.644L72.554,35.87L72.566,36.097L72.578,36.324L72.589,36.551L72.598,36.778L72.606,37.006L72.613,37.234L72.618,37.462L72.622,37.691L72.626,37.919L72.627,38.149L72.628,38.378L72.627,38.606L72.626,38.833L72.623,39.061L72.618,39.288L72.613,39.514L72.606,39.741L72.598,39.967L72.589,40.193L72.579,40.418L72.567,40.644L72.554,40.868L72.541,41.093L72.525,41.317L72.509,41.541L72.492,41.765L72.473,41.988L72.453,42.211L72.432,42.434L72.41,42.656L72.387,42.879L72.362,43.1L72.337,43.322L72.31,43.543L72.282,43.763L72.253,43.983L72.222,44.203L72.191,44.423L72.158,44.642L72.125,44.861L72.09,45.079L72.054,45.297L72.017,45.515L71.978,45.733L71.939,45.949L71.899,46.166L71.857,46.382L71.814,46.598L71.77,46.813L71.725,47.028L71.679,47.243L71.632,47.457L71.584,47.671L71.535,47.884L71.484,48.097L71.433,48.309L71.38,48.521L71.326,48.733L71.271,48.944L71.216,49.155L71.159,49.365L71.101,49.575L71.042,49.785L70.981,49.994L70.92,50.202L70.858,50.41L70.795,50.618L70.73,50.825L70.665,51.032L70.598,51.238L70.531,51.444L70.462,51.649L70.393,51.854L70.322,52.058L70.251,52.262L70.178,52.466L70.104,52.668L70.029,52.871L69.954,53.073L69.877,53.274L69.799,53.475L69.721,53.675L69.641,53.875L69.56,54.075L69.478,54.273L69.396,54.472L69.312,54.67L69.227,54.867L69.141,55.064L69.055,55.26L68.967,55.456L68.878,55.651L68.789,55.845L68.698,56.039L68.607,56.233L68.514,56.426L68.421,56.618L68.326,56.81L68.231,57.001L68.134,57.192L68.037,57.382L67.939,57.572L67.84,57.761L67.74,57.95L67.639,58.137L67.537,58.325L67.434,58.512L67.33,58.698L67.225,58.883L67.12,59.068L67.013,59.253L66.906,59.436L66.797,59.619L66.688,59.802L66.578,59.984L66.467,60.165L66.355,60.346L66.242,60.526L66.128,60.706L66.014,60.885L65.898,61.063L65.782,61.24L65.664,61.417L65.546,61.594L65.427,61.77L65.307,61.945L65.187,62.119L65.065,62.293L64.943,62.466L64.819,62.638L64.695,62.81L64.57,62.981L64.444,63.152L64.318,63.322L64.19,63.491L64.062,63.659L63.932,63.827L63.802,63.994L63.675,64.156L63.533,64.321L63.377,64.474L63.209,64.612L63.029,64.735L62.838,64.842L62.64,64.932L62.434,65.004L62.223,65.058L62.007,65.093L61.79,65.11L61.572,65.107L61.355,65.086L61.14,65.045L60.93,64.986L60.726,64.909L60.53,64.815L60.342,64.704L60.165,64.576L60,64.434L59.847,64.278L59.709,64.11L59.586,63.93L59.479,63.739L59.389,63.541L59.317,63.335L59.263,63.124L59.228,62.908L59.211,62.691L59.214,62.473L59.235,62.256L59.276,62.041L59.335,61.831L59.412,61.627L59.506,61.431L59.617,61.243L59.745,61.066L59.864,60.914L59.978,60.767L60.092,60.619L60.205,60.471L60.317,60.322L60.429,60.172L60.54,60.022L60.65,59.872L60.759,59.72L60.868,59.568L60.976,59.416L61.083,59.263L61.189,59.109L61.295,58.955L61.399,58.8L61.503,58.645L61.607,58.489L61.709,58.333L61.811,58.176L61.912,58.019L62.012,57.861L62.111,57.702L62.21,57.543L62.307,57.383L62.404,57.223L62.501,57.063L62.596,56.901L62.691,56.74L62.784,56.577L62.877,56.415L62.969,56.251L63.061,56.088L63.151,55.923L63.241,55.758L63.33,55.593L63.418,55.427L63.505,55.261L63.592,55.094L63.677,54.927L63.762,54.759L63.846,54.591L63.929,54.422L64.011,54.253L64.092,54.083L64.173,53.913L64.252,53.742L64.331,53.571L64.409,53.399L64.486,53.227L64.563,53.055L64.638,52.882L64.712,52.708L64.786,52.535L64.859,52.36L64.931,52.185L65.002,52.01L65.072,51.834L65.141,51.658L65.209,51.482L65.277,51.305L65.343,51.127L65.409,50.949L65.474,50.771L65.538,50.592L65.601,50.413L65.663,50.233L65.724,50.053L65.784,49.873L65.843,49.692L65.902,49.511L65.959,49.329L66.016,49.147L66.072,48.964L66.126,48.782L66.18,48.598L66.233,48.415L66.285,48.231L66.336,48.046L66.386,47.861L66.435,47.676L66.483,47.49L66.53,47.304L66.577,47.118L66.622,46.931L66.666,46.744L66.71,46.557L66.752,46.369L66.794,46.18L66.834,45.992L66.874,45.803L66.912,45.614L66.95,45.424L66.986,45.234L67.022,45.043L67.056,44.853L67.09,44.662L67.123,44.47L67.154,44.278L67.185,44.086L67.215,43.894L67.243,43.701L67.271,43.508L67.298,43.315L67.323,43.121L67.348,42.927L67.371,42.732L67.394,42.538L67.416,42.342L67.436,42.147L67.456,41.951L67.474,41.755L67.492,41.559L67.508,41.362L67.523,41.166L67.538,40.968L67.551,40.771L67.563,40.573L67.574,40.375L67.585,40.176L67.594,39.978L67.602,39.779L67.609,39.58L67.615,39.38L67.619,39.18L67.623,38.98L67.626,38.78L67.627,38.579L67.628,38.378L67.627,38.176L67.626,37.974L67.623,37.772L67.619,37.57L67.614,37.369L67.608,37.168L67.601,36.967L67.593,36.767L67.584,36.567L67.574,36.367L67.562,36.168L67.55,35.969L67.536,35.77L67.522,35.571L67.506,35.373L67.49,35.175L67.472,34.977L67.453,34.78L67.434,34.583L67.413,34.386L67.391,34.19L67.368,33.994L67.344,33.798L67.319,33.603L67.293,33.408L67.266,33.213L67.238,33.018L67.209,32.824L67.179,32.631L67.148,32.437L67.116,32.244L67.083,32.052L67.049,31.859L67.014,31.667L66.978,31.476L66.941,31.284L66.903,31.094L66.864,30.903L66.824,30.713L66.783,30.523L66.741,30.334L66.698,30.145L66.654,29.956L66.609,29.768L66.563,29.58L66.516,29.392L66.469,29.205L66.42,29.018L66.37,28.832L66.319,28.646L66.268,28.46L66.215,28.275L66.162,28.09L66.107,27.906L66.052,27.722L65.996,27.538L65.938,27.355L65.88,27.172L65.821,26.99L65.761,26.808L65.7,26.627L65.638,26.446L65.575,26.265L65.511,26.085L65.447,25.905L65.381,25.726L65.315,25.547L65.247,25.368L65.179,25.19L65.11,25.013L65.04,24.836L64.969,24.659L64.897,24.483L64.824,24.307L64.751,24.132L64.676,23.957L64.601,23.782L64.524,23.608L64.447,23.435L64.369,23.262L64.29,23.089L64.211,22.917L64.13,22.746L64.048,22.575L63.966,22.404L63.883,22.234L63.799,22.065L63.714,21.895L63.628,21.727L63.542,21.559L63.454,21.391L63.366,21.224L63.277,21.057L63.187,20.891L63.096,20.726L63.005,20.561L62.912,20.396L62.819,20.232L62.725,20.069L62.63,19.906L62.534,19.743L62.438,19.581L62.34,19.42L62.242,19.259L62.143,19.099L62.044,18.939L61.943,18.78L61.842,18.621L61.74,18.463L61.637,18.306L61.533,18.149L61.429,17.992L61.324,17.836L61.218,17.681L61.111,17.526L61.003,17.372L60.895,17.219L60.786,17.066L60.676,16.913L60.566,16.761L60.454,16.61L60.342,16.459L60.229,16.309L60.116,16.16L60.001,16.011L59.886,15.863L59.77,15.715L59.65,15.563L59.522,15.386L59.41,15.199L59.315,15.003L59.237,14.799L59.177,14.589L59.136,14.375L59.113,14.158L59.11,13.94L59.126,13.723L59.16,13.507L59.213,13.296L59.285,13.09L59.374,12.891L59.48,12.7L59.602,12.519L59.74,12.35L59.891,12.194L60.056,12.051L60.233,11.923L60.42,11.811L60.616,11.716L60.82,11.638L61.03,11.578L61.244,11.537L61.461,11.514L61.679,11.511L61.896,11.527Z" style="fill:white;"/>
    </g>
</svg>
