<?xml version="1.0" encoding="utf-8"?>
<!-- Generator: Adobe Illustrator 21.0.0, SVG Export Plug-In . SVG Version: 6.00 Build 0)  -->
<svg version="1.1" id="Layer_1" xmlns="http://www.w3.org/2000/svg" xmlns:xlink="http://www.w3.org/1999/xlink" x="0px" y="0px"
	 viewBox="0 0 151.7 152" style="enable-background:new 0 0 151.7 152;" xml:space="preserve">
<style type="text/css">
	.st0{fill:none;stroke:#FFFFFF;stroke-miterlimit:10;}
	.st1{fill:none;stroke:#126798;stroke-miterlimit:10;}
</style>
<path d="M248.3,36.4L248.3,36.4C248.3,36.4,248.3,36.4,248.3,36.4L248.3,36.4L248.3,36.4C248.3,36.4,248.3,36.4,248.3,36.4
	L248.3,36.4L248.3,36.4L248.3,36.4L248.3,36.4L248.3,36.4L248.3,36.4L248.3,36.4L248.3,36.4L248.3,36.4L248.3,36.4
	C248.3,36.4,248.3,36.4,248.3,36.4L248.3,36.4L248.3,36.4L248.3,36.4z M248.3,36.4L248.3,36.4L248.3,36.4L248.3,36.4L248.3,36.4
	L248.3,36.4C248.3,36.4,248.3,36.4,248.3,36.4C248.3,36.4,248.3,36.4,248.3,36.4L248.3,36.4L248.3,36.4
	C248.3,36.4,248.3,36.4,248.3,36.4z M248.3,36.4L248.3,36.4L248.3,36.4L248.3,36.4L248.3,36.4L248.3,36.4L248.3,36.4z M248.3,36.4
	L248.3,36.4L248.3,36.4L248.3,36.4L248.3,36.4z M248.3,36.4C248.3,36.4,248.3,36.4,248.3,36.4L248.3,36.4L248.3,36.4
	C248.3,36.4,248.3,36.4,248.3,36.4z"/>
<circle class="st0" cx="75.4" cy="75.6" r="74"/>
<path class="st0" d="M75.4,75.6"/>
<path class="st1" d="M248.3,36.4"/>
<g>
	<path class="st0" d="M97.3,51c-1.2-7.3-5.8-13.3-12.2-16.5l0.9,11.2c0.1,1-0.6,1.8-1.6,1.9c-0.1,0-0.1,0-0.1,0
		c-0.9,0-1.7-0.7-1.8-1.6l-1.3-15.2c-4-0.9-8-0.9-12,0L68,46.1c-0.1,1-0.9,1.7-1.9,1.6c-1-0.1-1.7-0.9-1.6-1.9l0.9-11.2
		c-6.4,3.1-11,9.2-12.2,16.5h-4.7v4.7v2.4c8.8,0.7,17.8,1.1,26.7,1.1c8.9,0,17.9-0.4,26.7-1.1v-2.4V51H97.3z"/>
	<path class="st0" d="M75.3,64.1c-6.8,0-13.6-0.2-20.4-0.6c0,0.8,0,1.6,0.1,2.3c0.5,6.9,5,17.1,8.5,22.7c3.6,5.8,11.8,5.7,11.8,5.7
		s8.2,0.1,11.8-5.7c3.5-5.6,8.1-15.8,8.6-22.7c0.1-0.7,0.1-1.5,0.1-2.3C88.9,63.8,82.1,64.1,75.3,64.1z"/>
	<path class="st0" d="M50.3,121c-2.9,0-4.9,0-4.9,0s-6.3-5.7-2.7-21.7c0.8-3.5,10.5-7.5,10.5-7.5c2.2-0.5,4.2-0.9,5.9-1.2
		c0.1,0.1,0.1,0.3,0.2,0.4c4.8,7.7,14.8,8,15.9,8c1.1,0,11.1-0.2,15.9-8c0.1-0.1,0.1-0.3,0.2-0.4c1.6,0.3,3.6,0.6,5.8,1.1
		c1.2,0.5,10.4,5.2,10.9,7.5c3,14.1-1.2,17.8-3,21.7H75.3C75.3,121,58.8,121,50.3,121z"/>
</g>
</svg>
