<svg xmlns="http://www.w3.org/2000/svg" viewBox="0 0 151.67 151.33"><defs><style>.cls-1,.cls-2,.cls-3,.cls-4{fill:none;stroke:#fff;stroke-linecap:round;stroke-linejoin:round;}.cls-2{stroke-width:0.87px;}.cls-3{stroke-width:0.75px;}.cls-4{stroke-width:0.5px;}</style></defs><title>line food</title><g id="Layer_1" data-name="Layer 1"><path d="M52,21.84Zm0,0Zm0,0Zm0,0Zm0,0h0Z"/><circle class="cls-1" cx="75.83" cy="75.33" r="74"/><path class="cls-2" d="M86.19,109.34s1-3.69-4.87-5.07-8.39,1-12.93-2.8c0,0,6,11,12.08,11.07C80.46,112.54,85,113.57,86.19,109.34Z"/><path class="cls-2" d="M80.51,97.5s1.24-3.64-4.6-5.32-8.43.59-12.77-3.48c0,0,5.4,11.32,11.48,11.69C74.62,100.39,79.05,101.66,80.51,97.5Z"/><path class="cls-2" d="M75.51,85.28s1.35-3.6-4.45-5.45-8.45.34-12.66-3.85c0,0,5.07,11.48,11.14,12C69.54,88,73.94,89.39,75.51,85.28Z"/><path class="cls-2" d="M69.67,72.36s1.21-3.65-4.64-5.28-8.43.65-12.79-3.38c0,0,5.49,11.27,11.58,11.6C63.81,75.3,68.24,76.53,69.67,72.36Z"/><path class="cls-2" d="M64.7,60.17s1.41-3.57-4.34-5.54-8.46.18-12.58-4.09c0,0,4.84,11.57,10.9,12.23C58.68,62.77,63,64.25,64.7,60.17Z"/><path class="cls-2" d="M91.14,99.36c-3,5.3.45,7,.45,7,4,1.94,6.23-2.07,6.23-2.07,4.08-4.53,0-16.39,0-16.39C97.57,93.87,94.13,94.06,91.14,99.36Z"/><path class="cls-2" d="M87.14,94.39c4,1.73,6.11-2.39,6.11-2.39,3.84-4.74-.87-16.36-.87-16.36C92.45,81.58,89,82,86.32,87.4S87.14,94.39,87.14,94.39Z"/><path class="cls-2" d="M81.48,82.67c4.1,1.61,6-2.57,6-2.57,3.69-4.85-1.35-16.33-1.35-16.33.25,5.93-3.16,6.41-5.71,11.93S81.48,82.67,81.48,82.67Z"/><path class="cls-2" d="M75.36,63.32c-2.75,5.42.76,7,.76,7,4,1.76,6.13-2.34,6.13-2.34,3.87-4.7-.75-16.37-.75-16.37C81.54,57.54,78.11,57.89,75.36,63.32Z"/><path class="cls-2" d="M71,58.59c4.13,1.53,6-2.68,6-2.68,3.6-4.92-1.66-16.3-1.66-16.3.36,5.93-3,6.47-5.48,12S71,58.59,71,58.59Z"/><path class="cls-3" d="M71,42.72C69.92,37.88,62.34,23,62.34,23a179.21,179.21,0,0,1,7.35,22.72Z"/><path class="cls-3" d="M44.63,30s5.33,15.85,8,20l3.37,1A152.15,152.15,0,0,1,44.63,30Z"/><path class="cls-1" d="M55.7,34.67a22,22,0,0,0,.72,11.5c1.68,4.57,7.32,3.5,7.32,3.5h0c.13-.1,4.46-3.6,2.07-7.84a20.48,20.48,0,0,0-8.24-8l-6.84-13.6Z"/><path class="cls-1" d="M63.71,49.95c8.08,22.6,38.55,82.68,33.78,82.79,0,0-3.05.28-3.9-1.17,0,0-1-16.91-4-22.47"/><path class="cls-4" d="M57.67,41.5A40.77,40.77,0,0,1,58,36.89s2.89,1.63,3.61,2.78"/></g><g id="highlights"><path class="cls-4" d="M91.79,102.82a9.5,9.5,0,0,1,3.26-5.33"/><path class="cls-4" d="M87.11,90.69a9.5,9.5,0,0,1,3.26-5.33"/><path class="cls-4" d="M81.22,78.91a9.5,9.5,0,0,1,3.26-5.33"/><path class="cls-4" d="M76,67.41a9.5,9.5,0,0,1,3.26-5.33"/><path class="cls-4" d="M71.29,55.59a9.5,9.5,0,0,1,2.26-5.83"/><path class="cls-4" d="M83.45,107.57a9.5,9.5,0,0,0-6-1.64"/><path class="cls-4" d="M77.92,95.78a9.5,9.5,0,0,0-6-1.64"/><path class="cls-4" d="M73.07,83.22a9.5,9.5,0,0,0-6-1.64"/><path class="cls-4" d="M66.95,70.63a9.5,9.5,0,0,0-6-1.64"/><path class="cls-4" d="M62.26,58.82a9.5,9.5,0,0,0-5.64-2.69"/></g></svg>