<svg id="Layer_1" data-name="Layer 1" xmlns="http://www.w3.org/2000/svg" viewBox="0 0 150.75 150.75"><defs><style>.cls-1,.cls-2,.cls-3,.cls-4{fill:none;stroke:#fff;}.cls-1,.cls-4{stroke-miterlimit:10;}.cls-2,.cls-3{stroke-linejoin:round;}.cls-3,.cls-4{stroke-linecap:round;}</style></defs><title>line carbon free</title><circle class="cls-1" cx="75.42" cy="75.53" r="74"/><path class="cls-2" d="M87.94,115.2A40.94,40.94,0,0,0,99.65,99.26C113.79,67,85.42,46,79.48,41.38,75.87,38.6,56.47,24.71,55.23,24c-.24.74-1.82,8-3.34,15.24-1.26,6-2.48,11.91-2.83,14-1.29,7.38-6.34,38.71,24.17,56.32C77.29,111.86,85,115,87.94,115.2"/><path class="cls-3" d="M68.07,55.41c6.41,14.35,15.1,42.2,20,59.59.17.61-.41,0-.24.63a68.66,68.66,0,0,1,2.64,15.12s2.5.33,3.25-.62c0,0-2.33-11.83-5.17-15.17"/><path class="cls-4" d="M82.23,96.25A40.94,40.94,0,0,0,93.94,80.3"/><path class="cls-4" d="M76.34,77.37A40.94,40.94,0,0,0,88,61.42"/><path class="cls-4" d="M65,82.79c4.06,2.34,11.81,5.46,14.72,5.69"/><path class="cls-4" d="M59.27,65.17c4.06,2.34,11.81,5.46,14.72,5.69"/></svg>