<?xml version="1.0" encoding="utf-8"?>
<!-- Generator: Adobe Illustrator 21.0.0, SVG Export Plug-In . SVG Version: 6.00 Build 0)  -->
<svg version="1.1" id="Layer_1" xmlns="http://www.w3.org/2000/svg" xmlns:xlink="http://www.w3.org/1999/xlink" x="0px" y="0px"
	 viewBox="0 0 152 152.5" style="enable-background:new 0 0 152 152.5;" xml:space="preserve">
<style type="text/css">
	.st0{fill:none;stroke:#FFFFFF;stroke-miterlimit:10;}
	.st1{fill:none;stroke:#126798;stroke-miterlimit:10;}
</style>
<path d="M73.5,17.8L73.5,17.8C73.5,17.8,73.5,17.8,73.5,17.8L73.5,17.8L73.5,17.8C73.5,17.8,73.5,17.8,73.5,17.8L73.5,17.8
	L73.5,17.8L73.5,17.8L73.5,17.8L73.5,17.8L73.5,17.8L73.5,17.8L73.5,17.8L73.5,17.8L73.5,17.8C73.5,17.8,73.5,17.8,73.5,17.8
	L73.5,17.8L73.5,17.8L73.5,17.8z M73.5,17.8L73.5,17.8L73.5,17.8L73.5,17.8L73.5,17.8L73.5,17.8C73.5,17.8,73.5,17.8,73.5,17.8
	C73.5,17.8,73.5,17.8,73.5,17.8L73.5,17.8L73.5,17.8C73.5,17.8,73.5,17.8,73.5,17.8z M73.5,17.8L73.5,17.8L73.5,17.8L73.5,17.8
	L73.5,17.8L73.5,17.8L73.5,17.8z M73.5,17.8L73.5,17.8L73.5,17.8L73.5,17.8L73.5,17.8z M73.5,17.8C73.5,17.8,73.5,17.8,73.5,17.8
	L73.5,17.8L73.5,17.8C73.5,17.8,73.5,17.8,73.5,17.8z"/>
<circle class="st0" cx="75.7" cy="76" r="74"/>
<path class="st0" d="M80.7,64.7c-3.5-0.3-19.1-8-22.4-11.4c-3-2.7-5.5-6.3-5.5-10.5c0,0-2.6,0-2.6,0c0,5.1-4.7,8.8-8.8,11
	c-2.4,1.3-5.1,2.3-7.8,3"/>
<path class="st0" d="M33.7,70.6L33.7,70.6c5.7-0.4,11.3-1,16.9-1.9c6.6-1.1,13.3-2.6,19.8-4.8v-14l-9.7-7.1h27.2l-9.7,7.1v10.9
	c4.3-2,8.6-4.4,12-7.5c3-2.7,5.5-6.3,5.5-10.5h2.6c0,5.1,4.7,8.8,8.8,11c2.2,1.2,4.6,2.1,7,2.8"/>
<path class="st1" d="M33.7,73.2"/>
<path class="st1" d="M51,71.2"/>
<path class="st0" d="M78.2,60.8l0,66.9h-7.8l0-63.8"/>
<path class="st1" d="M80.7,67.4"/>
<path class="st0" d="M114.1,70.5c-5.4-0.4-10.8-1-16.1-1.9c-5.7-0.9-11.5-2.2-17.2-4"/>
<path class="st1" d="M114.1,73.1"/>
<path class="st1" d="M97.5,71.2"/>
<polygon class="st0" points="44.4,29.1 49.6,29.1 49.6,34.3 53.5,34.3 53.5,29.1 58.7,29.1 58.7,34.3 89.8,34.3 89.8,29.1 95,29.1 
	95,34.3 98.9,34.3 98.9,29.1 104.1,29.1 104.1,34.3 106.7,34.3 106.7,40.2 41.9,40.1 41.9,34.3 44.4,34.3 "/>
</svg>
