<svg id="Layer_1" data-name="Layer 1" xmlns="http://www.w3.org/2000/svg" viewBox="0 0 153 153"><defs><style>.cls-1,.cls-2,.cls-3{fill:none;stroke:#fff;}.cls-1{stroke-miterlimit:10;}.cls-2,.cls-3{stroke-linejoin:round;}.cls-3{stroke-width:1.08px;}</style></defs><title>line sustainability</title><circle class="cls-1" cx="76.67" cy="76.78" r="74"/><polygon class="cls-2" points="73.83 49.83 61.83 70.7 51.01 64.46 66.63 37.21 73.83 49.83"/><polygon class="cls-3" points="102.42 54.77 99.55 61.62 99.5 61.74 97.07 67.54 96.58 68.7 95.37 68.52 89.11 67.56 88.17 67.42 88.1 67.41 81.65 66.43 86.1 63.93 86.15 63.91 76.27 46.69 68.94 34.5 69.07 34.26 83.49 33.7 83.63 33.94 97.27 57.66 102.42 54.77"/><polygon class="cls-2" points="49.56 101.45 73.47 101.74 73.48 114.23 42.23 114.01 49.56 101.45"/><polygon class="cls-3" points="39.37 74.56 46.73 73.62 46.86 73.6 53.1 72.81 54.35 72.65 54.8 73.79 57.1 79.69 57.45 80.57 57.48 80.64 59.85 86.71 55.46 84.11 55.42 84.08 45.45 101.25 38.38 113.69 38.1 113.69 30.59 101.5 30.73 101.26 44.45 77.58 39.37 74.56"/><polygon class="cls-2" points="105.88 97.46 94.26 76.73 105.06 70.46 120.42 97.5 105.88 97.46"/><path class="cls-3" d="M87.83,119.86,83.33,114l-.08-.1-3.82-5-.76-1,.76-1,4-4.95.59-.75,0-.06L88.08,96l-.05,5.1v.05l19.86,0,13.87.16.14.23S115.33,114,115.26,114c-6.84,0-27.37,0-27.37,0Z"/></svg>