<svg xmlns="http://www.w3.org/2000/svg" xmlns:xlink="http://www.w3.org/1999/xlink" viewBox="0 0 1190 674"><defs><style>.cls-1,.cls-10,.cls-16,.cls-17,.cls-2,.cls-26,.cls-4{fill:none;}.cls-10,.cls-11,.cls-14,.cls-16,.cls-17,.cls-18,.cls-2,.cls-26,.cls-4,.cls-5{stroke:#fff;}.cls-10,.cls-14,.cls-16,.cls-17,.cls-18,.cls-2,.cls-26{stroke-miterlimit:10;}.cls-3{font-size:48px;}.cls-11,.cls-12,.cls-14,.cls-15,.cls-18,.cls-20,.cls-23,.cls-27,.cls-3,.cls-31,.cls-32,.cls-6,.cls-8{fill:#fff;}.cls-27,.cls-3,.cls-6{font-family:Helvetica-Bold, Helvetica;font-weight:700;}.cls-10,.cls-11,.cls-14,.cls-16,.cls-17,.cls-18,.cls-26,.cls-4,.cls-5{stroke-linecap:round;}.cls-11,.cls-4,.cls-5{stroke-linejoin:round;}.cls-4,.cls-5{stroke-width:1.2px;opacity:0.49;}.cls-5{fill:url(#New_Pattern_2);}.cls-6{font-size:25.02px;}.cls-7{letter-spacing:-0.04em;}.cls-8{font-size:17.3px;}.cls-12,.cls-15,.cls-20,.cls-23,.cls-30,.cls-8{font-family:Helvetica, Helvetica;}.cls-9{letter-spacing:-0.05em;}.cls-10{stroke-width:3.43px;}.cls-11{stroke-width:1.71px;}.cls-12{font-size:18px;}.cls-13{letter-spacing:1.46em;}.cls-14,.cls-16,.cls-17,.cls-18,.cls-26{stroke-width:0.83px;}.cls-14{opacity:0.35;}.cls-15{font-size:16px;}.cls-17{opacity:0.05;}.cls-19{opacity:0.25;}.cls-20{font-size:11.64px;}.cls-21{letter-spacing:-0.07em;}.cls-22{letter-spacing:-0.05em;}.cls-23,.cls-30{font-size:14px;}.cls-24{letter-spacing:-0.11em;}.cls-25{letter-spacing:-0.05em;}.cls-26{opacity:0.5;}.cls-27{font-size:26px;}.cls-28{letter-spacing:-0.07em;}.cls-29,.cls-32{letter-spacing:-0.02em;}</style><pattern id="New_Pattern_2" data-name="New Pattern 2" width="4.5" height="4.5" patternTransform="translate(-7.04 4.44) scale(1.2)" patternUnits="userSpaceOnUse" viewBox="0 0 4.5 4.5"><rect class="cls-1" width="4.5" height="4.5"/><line class="cls-2" x1="-69.75" y1="182.25" x2="182.25" y2="-69.75"/><line class="cls-2" x1="-74.25" y1="182.25" x2="177.75" y2="-69.75"/><line class="cls-2" x1="-78.75" y1="182.25" x2="173.25" y2="-69.75"/><line class="cls-2" x1="-83.25" y1="182.25" x2="168.75" y2="-69.75"/><line class="cls-2" x1="-87.75" y1="182.25" x2="164.25" y2="-69.75"/><line class="cls-2" x1="-92.25" y1="182.25" x2="159.75" y2="-69.75"/><line class="cls-2" x1="-96.75" y1="182.25" x2="155.25" y2="-69.75"/><line class="cls-2" x1="-101.25" y1="182.25" x2="150.75" y2="-69.75"/><line class="cls-2" x1="-105.75" y1="182.25" x2="146.25" y2="-69.75"/><line class="cls-2" x1="-110.25" y1="182.25" x2="141.75" y2="-69.75"/><line class="cls-2" x1="-114.75" y1="182.25" x2="137.25" y2="-69.75"/><line class="cls-2" x1="-119.25" y1="182.25" x2="132.75" y2="-69.75"/><line class="cls-2" x1="-123.75" y1="182.25" x2="128.25" y2="-69.75"/><line class="cls-2" x1="-128.25" y1="182.25" x2="123.75" y2="-69.75"/><line class="cls-2" x1="-132.75" y1="182.25" x2="119.25" y2="-69.75"/><line class="cls-2" x1="-137.25" y1="182.25" x2="114.75" y2="-69.75"/><line class="cls-2" x1="-141.75" y1="182.25" x2="110.25" y2="-69.75"/><line class="cls-2" x1="-146.25" y1="182.25" x2="105.75" y2="-69.75"/><line class="cls-2" x1="-150.75" y1="182.25" x2="101.25" y2="-69.75"/><line class="cls-2" x1="-155.25" y1="182.25" x2="96.75" y2="-69.75"/><line class="cls-2" x1="-159.75" y1="182.25" x2="92.25" y2="-69.75"/><line class="cls-2" x1="-164.25" y1="182.25" x2="87.75" y2="-69.75"/><line class="cls-2" x1="-168.75" y1="182.25" x2="83.25" y2="-69.75"/><line class="cls-2" x1="-173.25" y1="182.25" x2="78.75" y2="-69.75"/><line class="cls-2" x1="-177.75" y1="182.25" x2="74.25" y2="-69.75"/><line class="cls-2" x1="-69.75" y1="177.75" x2="182.25" y2="-74.25"/><line class="cls-2" x1="-74.25" y1="177.75" x2="177.75" y2="-74.25"/><line class="cls-2" x1="-78.75" y1="177.75" x2="173.25" y2="-74.25"/><line class="cls-2" x1="-83.25" y1="177.75" x2="168.75" y2="-74.25"/><line class="cls-2" x1="-87.75" y1="177.75" x2="164.25" y2="-74.25"/><line class="cls-2" x1="-92.25" y1="177.75" x2="159.75" y2="-74.25"/><line class="cls-2" x1="-96.75" y1="177.75" x2="155.25" y2="-74.25"/><line class="cls-2" x1="-101.25" y1="177.75" x2="150.75" y2="-74.25"/><line class="cls-2" x1="-105.75" y1="177.75" x2="146.25" y2="-74.25"/><line class="cls-2" x1="-110.25" y1="177.75" x2="141.75" y2="-74.25"/><line class="cls-2" x1="-114.75" y1="177.75" x2="137.25" y2="-74.25"/><line class="cls-2" x1="-119.25" y1="177.75" x2="132.75" y2="-74.25"/><line class="cls-2" x1="-123.75" y1="177.75" x2="128.25" y2="-74.25"/><line class="cls-2" x1="-128.25" y1="177.75" x2="123.75" y2="-74.25"/><line class="cls-2" x1="-132.75" y1="177.75" x2="119.25" y2="-74.25"/><line class="cls-2" x1="-137.25" y1="177.75" x2="114.75" y2="-74.25"/><line class="cls-2" x1="-141.75" y1="177.75" x2="110.25" y2="-74.25"/><line class="cls-2" x1="-146.25" y1="177.75" x2="105.75" y2="-74.25"/><line class="cls-2" x1="-150.75" y1="177.75" x2="101.25" y2="-74.25"/><line class="cls-2" x1="-155.25" y1="177.75" x2="96.75" y2="-74.25"/><line class="cls-2" x1="-159.75" y1="177.75" x2="92.25" y2="-74.25"/><line class="cls-2" x1="-164.25" y1="177.75" x2="87.75" y2="-74.25"/><line class="cls-2" x1="-168.75" y1="177.75" x2="83.25" y2="-74.25"/><line class="cls-2" x1="-173.25" y1="177.75" x2="78.75" y2="-74.25"/><line class="cls-2" x1="-177.75" y1="177.75" x2="74.25" y2="-74.25"/><line class="cls-2" x1="-69.75" y1="173.25" x2="182.25" y2="-78.75"/><line class="cls-2" x1="-74.25" y1="173.25" x2="177.75" y2="-78.75"/><line class="cls-2" x1="-78.75" y1="173.25" x2="173.25" y2="-78.75"/><line class="cls-2" x1="-83.25" y1="173.25" x2="168.75" y2="-78.75"/><line class="cls-2" x1="-87.75" y1="173.25" x2="164.25" y2="-78.75"/><line class="cls-2" x1="-92.25" y1="173.25" x2="159.75" y2="-78.75"/><line class="cls-2" x1="-96.75" y1="173.25" x2="155.25" y2="-78.75"/><line class="cls-2" x1="-101.25" y1="173.25" x2="150.75" y2="-78.75"/><line class="cls-2" x1="-105.75" y1="173.25" x2="146.25" y2="-78.75"/><line class="cls-2" x1="-110.25" y1="173.25" x2="141.75" y2="-78.75"/><line class="cls-2" x1="-114.75" y1="173.25" x2="137.25" y2="-78.75"/><line class="cls-2" x1="-119.25" y1="173.25" x2="132.75" y2="-78.75"/><line class="cls-2" x1="-123.75" y1="173.25" x2="128.25" y2="-78.75"/><line class="cls-2" x1="-128.25" y1="173.25" x2="123.75" y2="-78.75"/><line class="cls-2" x1="-132.75" y1="173.25" x2="119.25" y2="-78.75"/><line class="cls-2" x1="-137.25" y1="173.25" x2="114.75" y2="-78.75"/><line class="cls-2" x1="-141.75" y1="173.25" x2="110.25" y2="-78.75"/><line class="cls-2" x1="-146.25" y1="173.25" x2="105.75" y2="-78.75"/><line class="cls-2" x1="-150.75" y1="173.25" x2="101.25" y2="-78.75"/><line class="cls-2" x1="-155.25" y1="173.25" x2="96.75" y2="-78.75"/><line class="cls-2" x1="-159.75" y1="173.25" x2="92.25" y2="-78.75"/><line class="cls-2" x1="-164.25" y1="173.25" x2="87.75" y2="-78.75"/><line class="cls-2" x1="-168.75" y1="173.25" x2="83.25" y2="-78.75"/><line class="cls-2" x1="-173.25" y1="173.25" x2="78.75" y2="-78.75"/><line class="cls-2" x1="-177.75" y1="173.25" x2="74.25" y2="-78.75"/><line class="cls-2" x1="-69.75" y1="168.75" x2="182.25" y2="-83.25"/><line class="cls-2" x1="-74.25" y1="168.75" x2="177.75" y2="-83.25"/><line class="cls-2" x1="-78.75" y1="168.75" x2="173.25" y2="-83.25"/><line class="cls-2" x1="-83.25" y1="168.75" x2="168.75" y2="-83.25"/><line class="cls-2" x1="-87.75" y1="168.75" x2="164.25" y2="-83.25"/><line class="cls-2" x1="-92.25" y1="168.75" x2="159.75" y2="-83.25"/><line class="cls-2" x1="-96.75" y1="168.75" x2="155.25" y2="-83.25"/><line class="cls-2" x1="-101.25" y1="168.75" x2="150.75" y2="-83.25"/><line class="cls-2" x1="-105.75" y1="168.75" x2="146.25" y2="-83.25"/><line class="cls-2" x1="-110.25" y1="168.75" x2="141.75" y2="-83.25"/><line class="cls-2" x1="-114.75" y1="168.75" x2="137.25" y2="-83.25"/><line class="cls-2" x1="-119.25" y1="168.75" x2="132.75" y2="-83.25"/><line class="cls-2" x1="-123.75" y1="168.75" x2="128.25" y2="-83.25"/><line class="cls-2" x1="-128.25" y1="168.75" x2="123.75" y2="-83.25"/><line class="cls-2" x1="-132.75" y1="168.75" x2="119.25" y2="-83.25"/><line class="cls-2" x1="-137.25" y1="168.75" x2="114.75" y2="-83.25"/><line class="cls-2" x1="-141.75" y1="168.75" x2="110.25" y2="-83.25"/><line class="cls-2" x1="-146.25" y1="168.75" x2="105.75" y2="-83.25"/><line class="cls-2" x1="-150.75" y1="168.75" x2="101.25" y2="-83.25"/><line class="cls-2" x1="-155.25" y1="168.75" x2="96.75" y2="-83.25"/><line class="cls-2" x1="-159.75" y1="168.75" x2="92.25" y2="-83.25"/><line class="cls-2" x1="-164.25" y1="168.75" x2="87.75" y2="-83.25"/><line class="cls-2" x1="-168.75" y1="168.75" x2="83.25" y2="-83.25"/><line class="cls-2" x1="-173.25" y1="168.75" x2="78.75" y2="-83.25"/><line class="cls-2" x1="-177.75" y1="168.75" x2="74.25" y2="-83.25"/><line class="cls-2" x1="-69.75" y1="164.25" x2="182.25" y2="-87.75"/><line class="cls-2" x1="-74.25" y1="164.25" x2="177.75" y2="-87.75"/><line class="cls-2" x1="-78.75" y1="164.25" x2="173.25" y2="-87.75"/><line class="cls-2" x1="-83.25" y1="164.25" x2="168.75" y2="-87.75"/><line class="cls-2" x1="-87.75" y1="164.25" x2="164.25" y2="-87.75"/><line class="cls-2" x1="-92.25" y1="164.25" x2="159.75" y2="-87.75"/><line class="cls-2" x1="-96.75" y1="164.25" x2="155.25" y2="-87.75"/><line class="cls-2" x1="-101.25" y1="164.25" x2="150.75" y2="-87.75"/><line class="cls-2" x1="-105.75" y1="164.25" x2="146.25" y2="-87.75"/><line class="cls-2" x1="-110.25" y1="164.25" x2="141.75" y2="-87.75"/><line class="cls-2" x1="-114.75" y1="164.25" x2="137.25" y2="-87.75"/><line class="cls-2" x1="-119.25" y1="164.25" x2="132.75" y2="-87.75"/><line class="cls-2" x1="-123.75" y1="164.25" x2="128.25" y2="-87.75"/><line class="cls-2" x1="-128.25" y1="164.25" x2="123.75" y2="-87.75"/><line class="cls-2" x1="-132.75" y1="164.25" x2="119.25" y2="-87.75"/><line class="cls-2" x1="-137.25" y1="164.25" x2="114.75" y2="-87.75"/><line class="cls-2" x1="-141.75" y1="164.25" x2="110.25" y2="-87.75"/><line class="cls-2" x1="-146.25" y1="164.25" x2="105.75" y2="-87.75"/><line class="cls-2" x1="-150.75" y1="164.25" x2="101.25" y2="-87.75"/><line class="cls-2" x1="-155.25" y1="164.25" x2="96.75" y2="-87.75"/><line class="cls-2" x1="-159.75" y1="164.25" x2="92.25" y2="-87.75"/><line class="cls-2" x1="-164.25" y1="164.25" x2="87.75" y2="-87.75"/><line class="cls-2" x1="-168.75" y1="164.25" x2="83.25" y2="-87.75"/><line class="cls-2" x1="-173.25" y1="164.25" x2="78.75" y2="-87.75"/><line class="cls-2" x1="-177.75" y1="164.25" x2="74.25" y2="-87.75"/><line class="cls-2" x1="-69.75" y1="159.75" x2="182.25" y2="-92.25"/><line class="cls-2" x1="-74.25" y1="159.75" x2="177.75" y2="-92.25"/><line class="cls-2" x1="-78.75" y1="159.75" x2="173.25" y2="-92.25"/><line class="cls-2" x1="-83.25" y1="159.75" x2="168.75" y2="-92.25"/><line class="cls-2" x1="-87.75" y1="159.75" x2="164.25" y2="-92.25"/><line class="cls-2" x1="-92.25" y1="159.75" x2="159.75" y2="-92.25"/><line class="cls-2" x1="-96.75" y1="159.75" x2="155.25" y2="-92.25"/><line class="cls-2" x1="-101.25" y1="159.75" x2="150.75" y2="-92.25"/><line class="cls-2" x1="-105.75" y1="159.75" x2="146.25" y2="-92.25"/><line class="cls-2" x1="-110.25" y1="159.75" x2="141.75" y2="-92.25"/><line class="cls-2" x1="-114.75" y1="159.75" x2="137.25" y2="-92.25"/><line class="cls-2" x1="-119.25" y1="159.75" x2="132.75" y2="-92.25"/><line class="cls-2" x1="-123.75" y1="159.75" x2="128.25" y2="-92.25"/><line class="cls-2" x1="-128.25" y1="159.75" x2="123.75" y2="-92.25"/><line class="cls-2" x1="-132.75" y1="159.75" x2="119.25" y2="-92.25"/><line class="cls-2" x1="-137.25" y1="159.75" x2="114.75" y2="-92.25"/><line class="cls-2" x1="-141.75" y1="159.75" x2="110.25" y2="-92.25"/><line class="cls-2" x1="-146.25" y1="159.75" x2="105.75" y2="-92.25"/><line class="cls-2" x1="-150.75" y1="159.75" x2="101.25" y2="-92.25"/><line class="cls-2" x1="-155.25" y1="159.75" x2="96.75" y2="-92.25"/><line class="cls-2" x1="-159.75" y1="159.75" x2="92.25" y2="-92.25"/><line class="cls-2" x1="-164.25" y1="159.75" x2="87.75" y2="-92.25"/><line class="cls-2" x1="-168.75" y1="159.75" x2="83.25" y2="-92.25"/><line class="cls-2" x1="-173.25" y1="159.75" x2="78.75" y2="-92.25"/><line class="cls-2" x1="-177.75" y1="159.75" x2="74.25" y2="-92.25"/><line class="cls-2" x1="-69.75" y1="155.25" x2="182.25" y2="-96.75"/><line class="cls-2" x1="-74.25" y1="155.25" x2="177.75" y2="-96.75"/><line class="cls-2" x1="-78.75" y1="155.25" x2="173.25" y2="-96.75"/><line class="cls-2" x1="-83.25" y1="155.25" x2="168.75" y2="-96.75"/><line class="cls-2" x1="-87.75" y1="155.25" x2="164.25" y2="-96.75"/><line class="cls-2" x1="-92.25" y1="155.25" x2="159.75" y2="-96.75"/><line class="cls-2" x1="-96.75" y1="155.25" x2="155.25" y2="-96.75"/><line class="cls-2" x1="-101.25" y1="155.25" x2="150.75" y2="-96.75"/><line class="cls-2" x1="-105.75" y1="155.25" x2="146.25" y2="-96.75"/><line class="cls-2" x1="-110.25" y1="155.25" x2="141.75" y2="-96.75"/><line class="cls-2" x1="-114.75" y1="155.25" x2="137.25" y2="-96.75"/><line class="cls-2" x1="-119.25" y1="155.25" x2="132.75" y2="-96.75"/><line class="cls-2" x1="-123.75" y1="155.25" x2="128.25" y2="-96.75"/><line class="cls-2" x1="-128.25" y1="155.25" x2="123.75" y2="-96.75"/><line class="cls-2" x1="-132.75" y1="155.25" x2="119.25" y2="-96.75"/><line class="cls-2" x1="-137.25" y1="155.25" x2="114.75" y2="-96.75"/><line class="cls-2" x1="-141.75" y1="155.25" x2="110.25" y2="-96.75"/><line class="cls-2" x1="-146.25" y1="155.25" x2="105.75" y2="-96.75"/><line class="cls-2" x1="-150.75" y1="155.25" x2="101.25" y2="-96.75"/><line class="cls-2" x1="-155.25" y1="155.25" x2="96.75" y2="-96.75"/><line class="cls-2" x1="-159.75" y1="155.25" x2="92.25" y2="-96.75"/><line class="cls-2" x1="-164.25" y1="155.25" x2="87.75" y2="-96.75"/><line class="cls-2" x1="-168.75" y1="155.25" x2="83.25" y2="-96.75"/><line class="cls-2" x1="-173.25" y1="155.25" x2="78.75" y2="-96.75"/><line class="cls-2" x1="-177.75" y1="155.25" x2="74.25" y2="-96.75"/><line class="cls-2" x1="-69.75" y1="150.75" x2="182.25" y2="-101.25"/><line class="cls-2" x1="-74.25" y1="150.75" x2="177.75" y2="-101.25"/><line class="cls-2" x1="-78.75" y1="150.75" x2="173.25" y2="-101.25"/><line class="cls-2" x1="-83.25" y1="150.75" x2="168.75" y2="-101.25"/><line class="cls-2" x1="-87.75" y1="150.75" x2="164.25" y2="-101.25"/><line class="cls-2" x1="-92.25" y1="150.75" x2="159.75" y2="-101.25"/><line class="cls-2" x1="-96.75" y1="150.75" x2="155.25" y2="-101.25"/><line class="cls-2" x1="-101.25" y1="150.75" x2="150.75" y2="-101.25"/><line class="cls-2" x1="-105.75" y1="150.75" x2="146.25" y2="-101.25"/><line class="cls-2" x1="-110.25" y1="150.75" x2="141.75" y2="-101.25"/><line class="cls-2" x1="-114.75" y1="150.75" x2="137.25" y2="-101.25"/><line class="cls-2" x1="-119.25" y1="150.75" x2="132.75" y2="-101.25"/><line class="cls-2" x1="-123.75" y1="150.75" x2="128.25" y2="-101.25"/><line class="cls-2" x1="-128.25" y1="150.75" x2="123.75" y2="-101.25"/><line class="cls-2" x1="-132.75" y1="150.75" x2="119.25" y2="-101.25"/><line class="cls-2" x1="-137.25" y1="150.75" x2="114.75" y2="-101.25"/><line class="cls-2" x1="-141.75" y1="150.75" x2="110.25" y2="-101.25"/><line class="cls-2" x1="-146.25" y1="150.75" x2="105.75" y2="-101.25"/><line class="cls-2" x1="-150.75" y1="150.75" x2="101.25" y2="-101.25"/><line class="cls-2" x1="-155.25" y1="150.75" x2="96.75" y2="-101.25"/><line class="cls-2" x1="-159.75" y1="150.75" x2="92.25" y2="-101.25"/><line class="cls-2" x1="-164.25" y1="150.75" x2="87.75" y2="-101.25"/><line class="cls-2" x1="-168.75" y1="150.75" x2="83.25" y2="-101.25"/><line class="cls-2" x1="-173.25" y1="150.75" x2="78.75" y2="-101.25"/><line class="cls-2" x1="-177.75" y1="150.75" x2="74.25" y2="-101.25"/><line class="cls-2" x1="-69.75" y1="146.25" x2="182.25" y2="-105.75"/><line class="cls-2" x1="-74.25" y1="146.25" x2="177.75" y2="-105.75"/><line class="cls-2" x1="-78.75" y1="146.25" x2="173.25" y2="-105.75"/><line class="cls-2" x1="-83.25" y1="146.25" x2="168.75" y2="-105.75"/><line class="cls-2" x1="-87.75" y1="146.25" x2="164.25" y2="-105.75"/><line class="cls-2" x1="-92.25" y1="146.25" x2="159.75" y2="-105.75"/><line class="cls-2" x1="-96.75" y1="146.25" x2="155.25" y2="-105.75"/><line class="cls-2" x1="-101.25" y1="146.25" x2="150.75" y2="-105.75"/><line class="cls-2" x1="-105.75" y1="146.25" x2="146.25" y2="-105.75"/><line class="cls-2" x1="-110.25" y1="146.25" x2="141.75" y2="-105.75"/><line class="cls-2" x1="-114.75" y1="146.25" x2="137.25" y2="-105.75"/><line class="cls-2" x1="-119.25" y1="146.25" x2="132.75" y2="-105.75"/><line class="cls-2" x1="-123.75" y1="146.25" x2="128.25" y2="-105.75"/><line class="cls-2" x1="-128.25" y1="146.25" x2="123.75" y2="-105.75"/><line class="cls-2" x1="-132.75" y1="146.25" x2="119.25" y2="-105.75"/><line class="cls-2" x1="-137.25" y1="146.25" x2="114.75" y2="-105.75"/><line class="cls-2" x1="-141.75" y1="146.25" x2="110.25" y2="-105.75"/><line class="cls-2" x1="-146.25" y1="146.25" x2="105.75" y2="-105.75"/><line class="cls-2" x1="-150.75" y1="146.25" x2="101.25" y2="-105.75"/><line class="cls-2" x1="-155.25" y1="146.25" x2="96.75" y2="-105.75"/><line class="cls-2" x1="-159.75" y1="146.25" x2="92.25" y2="-105.75"/><line class="cls-2" x1="-164.25" y1="146.25" x2="87.75" y2="-105.75"/><line class="cls-2" x1="-168.75" y1="146.25" x2="83.25" y2="-105.75"/><line class="cls-2" x1="-173.25" y1="146.25" x2="78.75" y2="-105.75"/><line class="cls-2" x1="-177.75" y1="146.25" x2="74.25" y2="-105.75"/><line class="cls-2" x1="-69.75" y1="141.75" x2="182.25" y2="-110.25"/><line class="cls-2" x1="-74.25" y1="141.75" x2="177.75" y2="-110.25"/><line class="cls-2" x1="-78.75" y1="141.75" x2="173.25" y2="-110.25"/><line class="cls-2" x1="-83.25" y1="141.75" x2="168.75" y2="-110.25"/><line class="cls-2" x1="-87.75" y1="141.75" x2="164.25" y2="-110.25"/><line class="cls-2" x1="-92.25" y1="141.75" x2="159.75" y2="-110.25"/><line class="cls-2" x1="-96.75" y1="141.75" x2="155.25" y2="-110.25"/><line class="cls-2" x1="-101.25" y1="141.75" x2="150.75" y2="-110.25"/><line class="cls-2" x1="-105.75" y1="141.75" x2="146.25" y2="-110.25"/><line class="cls-2" x1="-110.25" y1="141.75" x2="141.75" y2="-110.25"/><line class="cls-2" x1="-114.75" y1="141.75" x2="137.25" y2="-110.25"/><line class="cls-2" x1="-119.25" y1="141.75" x2="132.75" y2="-110.25"/><line class="cls-2" x1="-123.75" y1="141.75" x2="128.25" y2="-110.25"/><line class="cls-2" x1="-128.25" y1="141.75" x2="123.75" y2="-110.25"/><line class="cls-2" x1="-132.75" y1="141.75" x2="119.25" y2="-110.25"/><line class="cls-2" x1="-137.25" y1="141.75" x2="114.75" y2="-110.25"/><line class="cls-2" x1="-141.75" y1="141.75" x2="110.25" y2="-110.25"/><line class="cls-2" x1="-146.25" y1="141.75" x2="105.75" y2="-110.25"/><line class="cls-2" x1="-150.75" y1="141.75" x2="101.25" y2="-110.25"/><line class="cls-2" x1="-155.25" y1="141.75" x2="96.75" y2="-110.25"/><line class="cls-2" x1="-159.75" y1="141.75" x2="92.25" y2="-110.25"/><line class="cls-2" x1="-164.25" y1="141.75" x2="87.75" y2="-110.25"/><line class="cls-2" x1="-168.75" y1="141.75" x2="83.25" y2="-110.25"/><line class="cls-2" x1="-173.25" y1="141.75" x2="78.75" y2="-110.25"/><line class="cls-2" x1="-177.75" y1="141.75" x2="74.25" y2="-110.25"/><line class="cls-2" x1="-69.75" y1="137.25" x2="182.25" y2="-114.75"/><line class="cls-2" x1="-74.25" y1="137.25" x2="177.75" y2="-114.75"/><line class="cls-2" x1="-78.75" y1="137.25" x2="173.25" y2="-114.75"/><line class="cls-2" x1="-83.25" y1="137.25" x2="168.75" y2="-114.75"/><line class="cls-2" x1="-87.75" y1="137.25" x2="164.25" y2="-114.75"/><line class="cls-2" x1="-92.25" y1="137.25" x2="159.75" y2="-114.75"/><line class="cls-2" x1="-96.75" y1="137.25" x2="155.25" y2="-114.75"/><line class="cls-2" x1="-101.25" y1="137.25" x2="150.75" y2="-114.75"/><line class="cls-2" x1="-105.75" y1="137.25" x2="146.25" y2="-114.75"/><line class="cls-2" x1="-110.25" y1="137.25" x2="141.75" y2="-114.75"/><line class="cls-2" x1="-114.75" y1="137.25" x2="137.25" y2="-114.75"/><line class="cls-2" x1="-119.25" y1="137.25" x2="132.75" y2="-114.75"/><line class="cls-2" x1="-123.75" y1="137.25" x2="128.25" y2="-114.75"/><line class="cls-2" x1="-128.25" y1="137.25" x2="123.75" y2="-114.75"/><line class="cls-2" x1="-132.75" y1="137.25" x2="119.25" y2="-114.75"/><line class="cls-2" x1="-137.25" y1="137.25" x2="114.75" y2="-114.75"/><line class="cls-2" x1="-141.75" y1="137.25" x2="110.25" y2="-114.75"/><line class="cls-2" x1="-146.25" y1="137.25" x2="105.75" y2="-114.75"/><line class="cls-2" x1="-150.75" y1="137.25" x2="101.25" y2="-114.75"/><line class="cls-2" x1="-155.25" y1="137.25" x2="96.75" y2="-114.75"/><line class="cls-2" x1="-159.75" y1="137.25" x2="92.25" y2="-114.75"/><line class="cls-2" x1="-164.25" y1="137.25" x2="87.75" y2="-114.75"/><line class="cls-2" x1="-168.75" y1="137.25" x2="83.25" y2="-114.75"/><line class="cls-2" x1="-173.25" y1="137.25" x2="78.75" y2="-114.75"/><line class="cls-2" x1="-177.75" y1="137.25" x2="74.25" y2="-114.75"/><line class="cls-2" x1="-69.75" y1="132.75" x2="182.25" y2="-119.25"/><line class="cls-2" x1="-74.25" y1="132.75" x2="177.75" y2="-119.25"/><line class="cls-2" x1="-78.75" y1="132.75" x2="173.25" y2="-119.25"/><line class="cls-2" x1="-83.25" y1="132.75" x2="168.75" y2="-119.25"/><line class="cls-2" x1="-87.75" y1="132.75" x2="164.25" y2="-119.25"/><line class="cls-2" x1="-92.25" y1="132.75" x2="159.75" y2="-119.25"/><line class="cls-2" x1="-96.75" y1="132.75" x2="155.25" y2="-119.25"/><line class="cls-2" x1="-101.25" y1="132.75" x2="150.75" y2="-119.25"/><line class="cls-2" x1="-105.75" y1="132.75" x2="146.25" y2="-119.25"/><line class="cls-2" x1="-110.25" y1="132.75" x2="141.75" y2="-119.25"/><line class="cls-2" x1="-114.75" y1="132.75" x2="137.25" y2="-119.25"/><line class="cls-2" x1="-119.25" y1="132.75" x2="132.75" y2="-119.25"/><line class="cls-2" x1="-123.75" y1="132.75" x2="128.25" y2="-119.25"/><line class="cls-2" x1="-128.25" y1="132.75" x2="123.75" y2="-119.25"/><line class="cls-2" x1="-132.75" y1="132.75" x2="119.25" y2="-119.25"/><line class="cls-2" x1="-137.25" y1="132.75" x2="114.75" y2="-119.25"/><line class="cls-2" x1="-141.75" y1="132.75" x2="110.25" y2="-119.25"/><line class="cls-2" x1="-146.25" y1="132.75" x2="105.75" y2="-119.25"/><line class="cls-2" x1="-150.75" y1="132.75" x2="101.25" y2="-119.25"/><line class="cls-2" x1="-155.25" y1="132.75" x2="96.75" y2="-119.25"/><line class="cls-2" x1="-159.75" y1="132.75" x2="92.25" y2="-119.25"/><line class="cls-2" x1="-164.25" y1="132.75" x2="87.75" y2="-119.25"/><line class="cls-2" x1="-168.75" y1="132.75" x2="83.25" y2="-119.25"/><line class="cls-2" x1="-173.25" y1="132.75" x2="78.75" y2="-119.25"/><line class="cls-2" x1="-177.75" y1="132.75" x2="74.25" y2="-119.25"/><line class="cls-2" x1="-69.75" y1="128.25" x2="182.25" y2="-123.75"/><line class="cls-2" x1="-74.25" y1="128.25" x2="177.75" y2="-123.75"/><line class="cls-2" x1="-78.75" y1="128.25" x2="173.25" y2="-123.75"/><line class="cls-2" x1="-83.25" y1="128.25" x2="168.75" y2="-123.75"/><line class="cls-2" x1="-87.75" y1="128.25" x2="164.25" y2="-123.75"/><line class="cls-2" x1="-92.25" y1="128.25" x2="159.75" y2="-123.75"/><line class="cls-2" x1="-96.75" y1="128.25" x2="155.25" y2="-123.75"/><line class="cls-2" x1="-101.25" y1="128.25" x2="150.75" y2="-123.75"/><line class="cls-2" x1="-105.75" y1="128.25" x2="146.25" y2="-123.75"/><line class="cls-2" x1="-110.25" y1="128.25" x2="141.75" y2="-123.75"/><line class="cls-2" x1="-114.75" y1="128.25" x2="137.25" y2="-123.75"/><line class="cls-2" x1="-119.25" y1="128.25" x2="132.75" y2="-123.75"/><line class="cls-2" x1="-123.75" y1="128.25" x2="128.25" y2="-123.75"/><line class="cls-2" x1="-128.25" y1="128.25" x2="123.75" y2="-123.75"/><line class="cls-2" x1="-132.75" y1="128.25" x2="119.25" y2="-123.75"/><line class="cls-2" x1="-137.25" y1="128.25" x2="114.75" y2="-123.75"/><line class="cls-2" x1="-141.75" y1="128.25" x2="110.25" y2="-123.75"/><line class="cls-2" x1="-146.25" y1="128.25" x2="105.75" y2="-123.75"/><line class="cls-2" x1="-150.75" y1="128.25" x2="101.25" y2="-123.75"/><line class="cls-2" x1="-155.25" y1="128.25" x2="96.75" y2="-123.75"/><line class="cls-2" x1="-159.75" y1="128.25" x2="92.25" y2="-123.75"/><line class="cls-2" x1="-164.25" y1="128.25" x2="87.75" y2="-123.75"/><line class="cls-2" x1="-168.75" y1="128.25" x2="83.25" y2="-123.75"/><line class="cls-2" x1="-173.25" y1="128.25" x2="78.75" y2="-123.75"/><line class="cls-2" x1="-177.75" y1="128.25" x2="74.25" y2="-123.75"/><line class="cls-2" x1="-69.75" y1="123.75" x2="182.25" y2="-128.25"/><line class="cls-2" x1="-74.25" y1="123.75" x2="177.75" y2="-128.25"/><line class="cls-2" x1="-78.75" y1="123.75" x2="173.25" y2="-128.25"/><line class="cls-2" x1="-83.25" y1="123.75" x2="168.75" y2="-128.25"/><line class="cls-2" x1="-87.75" y1="123.75" x2="164.25" y2="-128.25"/><line class="cls-2" x1="-92.25" y1="123.75" x2="159.75" y2="-128.25"/><line class="cls-2" x1="-96.75" y1="123.75" x2="155.25" y2="-128.25"/><line class="cls-2" x1="-101.25" y1="123.75" x2="150.75" y2="-128.25"/><line class="cls-2" x1="-105.75" y1="123.75" x2="146.25" y2="-128.25"/><line class="cls-2" x1="-110.25" y1="123.75" x2="141.75" y2="-128.25"/><line class="cls-2" x1="-114.75" y1="123.75" x2="137.25" y2="-128.25"/><line class="cls-2" x1="-119.25" y1="123.75" x2="132.75" y2="-128.25"/><line class="cls-2" x1="-123.75" y1="123.75" x2="128.25" y2="-128.25"/><line class="cls-2" x1="-128.25" y1="123.75" x2="123.75" y2="-128.25"/><line class="cls-2" x1="-132.75" y1="123.75" x2="119.25" y2="-128.25"/><line class="cls-2" x1="-137.25" y1="123.75" x2="114.75" y2="-128.25"/><line class="cls-2" x1="-141.75" y1="123.75" x2="110.25" y2="-128.25"/><line class="cls-2" x1="-146.25" y1="123.75" x2="105.75" y2="-128.25"/><line class="cls-2" x1="-150.75" y1="123.75" x2="101.25" y2="-128.25"/><line class="cls-2" x1="-155.25" y1="123.75" x2="96.75" y2="-128.25"/><line class="cls-2" x1="-159.75" y1="123.75" x2="92.25" y2="-128.25"/><line class="cls-2" x1="-164.25" y1="123.75" x2="87.75" y2="-128.25"/><line class="cls-2" x1="-168.75" y1="123.75" x2="83.25" y2="-128.25"/><line class="cls-2" x1="-173.25" y1="123.75" x2="78.75" y2="-128.25"/><line class="cls-2" x1="-177.75" y1="123.75" x2="74.25" y2="-128.25"/><line class="cls-2" x1="-69.75" y1="119.25" x2="182.25" y2="-132.75"/><line class="cls-2" x1="-74.25" y1="119.25" x2="177.75" y2="-132.75"/><line class="cls-2" x1="-78.75" y1="119.25" x2="173.25" y2="-132.75"/><line class="cls-2" x1="-83.25" y1="119.25" x2="168.75" y2="-132.75"/><line class="cls-2" x1="-87.75" y1="119.25" x2="164.25" y2="-132.75"/><line class="cls-2" x1="-92.25" y1="119.25" x2="159.75" y2="-132.75"/><line class="cls-2" x1="-96.75" y1="119.25" x2="155.25" y2="-132.75"/><line class="cls-2" x1="-101.25" y1="119.25" x2="150.75" y2="-132.75"/><line class="cls-2" x1="-105.75" y1="119.25" x2="146.25" y2="-132.75"/><line class="cls-2" x1="-110.25" y1="119.25" x2="141.75" y2="-132.75"/><line class="cls-2" x1="-114.75" y1="119.25" x2="137.25" y2="-132.75"/><line class="cls-2" x1="-119.25" y1="119.25" x2="132.75" y2="-132.75"/><line class="cls-2" x1="-123.75" y1="119.25" x2="128.25" y2="-132.75"/><line class="cls-2" x1="-128.25" y1="119.25" x2="123.75" y2="-132.75"/><line class="cls-2" x1="-132.75" y1="119.25" x2="119.25" y2="-132.75"/><line class="cls-2" x1="-137.25" y1="119.25" x2="114.75" y2="-132.75"/><line class="cls-2" x1="-141.75" y1="119.25" x2="110.25" y2="-132.75"/><line class="cls-2" x1="-146.25" y1="119.25" x2="105.75" y2="-132.75"/><line class="cls-2" x1="-150.75" y1="119.25" x2="101.25" y2="-132.75"/><line class="cls-2" x1="-155.25" y1="119.25" x2="96.75" y2="-132.75"/><line class="cls-2" x1="-159.75" y1="119.25" x2="92.25" y2="-132.75"/><line class="cls-2" x1="-164.25" y1="119.25" x2="87.75" y2="-132.75"/><line class="cls-2" x1="-168.75" y1="119.25" x2="83.25" y2="-132.75"/><line class="cls-2" x1="-173.25" y1="119.25" x2="78.75" y2="-132.75"/><line class="cls-2" x1="-177.75" y1="119.25" x2="74.25" y2="-132.75"/><line class="cls-2" x1="-69.75" y1="114.75" x2="182.25" y2="-137.25"/><line class="cls-2" x1="-74.25" y1="114.75" x2="177.75" y2="-137.25"/><line class="cls-2" x1="-78.75" y1="114.75" x2="173.25" y2="-137.25"/><line class="cls-2" x1="-83.25" y1="114.75" x2="168.75" y2="-137.25"/><line class="cls-2" x1="-87.75" y1="114.75" x2="164.25" y2="-137.25"/><line class="cls-2" x1="-92.25" y1="114.75" x2="159.75" y2="-137.25"/><line class="cls-2" x1="-96.75" y1="114.75" x2="155.25" y2="-137.25"/><line class="cls-2" x1="-101.25" y1="114.75" x2="150.75" y2="-137.25"/><line class="cls-2" x1="-105.75" y1="114.75" x2="146.25" y2="-137.25"/><line class="cls-2" x1="-110.25" y1="114.75" x2="141.75" y2="-137.25"/><line class="cls-2" x1="-114.75" y1="114.75" x2="137.25" y2="-137.25"/><line class="cls-2" x1="-119.25" y1="114.75" x2="132.75" y2="-137.25"/><line class="cls-2" x1="-123.75" y1="114.75" x2="128.25" y2="-137.25"/><line class="cls-2" x1="-128.25" y1="114.75" x2="123.75" y2="-137.25"/><line class="cls-2" x1="-132.75" y1="114.75" x2="119.25" y2="-137.25"/><line class="cls-2" x1="-137.25" y1="114.75" x2="114.75" y2="-137.25"/><line class="cls-2" x1="-141.75" y1="114.75" x2="110.25" y2="-137.25"/><line class="cls-2" x1="-146.25" y1="114.75" x2="105.75" y2="-137.25"/><line class="cls-2" x1="-150.75" y1="114.75" x2="101.25" y2="-137.25"/><line class="cls-2" x1="-155.25" y1="114.75" x2="96.75" y2="-137.25"/><line class="cls-2" x1="-159.75" y1="114.75" x2="92.25" y2="-137.25"/><line class="cls-2" x1="-164.25" y1="114.75" x2="87.75" y2="-137.25"/><line class="cls-2" x1="-168.75" y1="114.75" x2="83.25" y2="-137.25"/><line class="cls-2" x1="-173.25" y1="114.75" x2="78.75" y2="-137.25"/><line class="cls-2" x1="-177.75" y1="114.75" x2="74.25" y2="-137.25"/><line class="cls-2" x1="-69.75" y1="110.25" x2="182.25" y2="-141.75"/><line class="cls-2" x1="-74.25" y1="110.25" x2="177.75" y2="-141.75"/><line class="cls-2" x1="-78.75" y1="110.25" x2="173.25" y2="-141.75"/><line class="cls-2" x1="-83.25" y1="110.25" x2="168.75" y2="-141.75"/><line class="cls-2" x1="-87.75" y1="110.25" x2="164.25" y2="-141.75"/><line class="cls-2" x1="-92.25" y1="110.25" x2="159.75" y2="-141.75"/><line class="cls-2" x1="-96.75" y1="110.25" x2="155.25" y2="-141.75"/><line class="cls-2" x1="-101.25" y1="110.25" x2="150.75" y2="-141.75"/><line class="cls-2" x1="-105.75" y1="110.25" x2="146.25" y2="-141.75"/><line class="cls-2" x1="-110.25" y1="110.25" x2="141.75" y2="-141.75"/><line class="cls-2" x1="-114.75" y1="110.25" x2="137.25" y2="-141.75"/><line class="cls-2" x1="-119.25" y1="110.25" x2="132.75" y2="-141.75"/><line class="cls-2" x1="-123.75" y1="110.25" x2="128.25" y2="-141.75"/><line class="cls-2" x1="-128.25" y1="110.25" x2="123.75" y2="-141.75"/><line class="cls-2" x1="-132.75" y1="110.25" x2="119.25" y2="-141.75"/><line class="cls-2" x1="-137.25" y1="110.25" x2="114.75" y2="-141.75"/><line class="cls-2" x1="-141.75" y1="110.25" x2="110.25" y2="-141.75"/><line class="cls-2" x1="-146.25" y1="110.25" x2="105.75" y2="-141.75"/><line class="cls-2" x1="-150.75" y1="110.25" x2="101.25" y2="-141.75"/><line class="cls-2" x1="-155.25" y1="110.25" x2="96.75" y2="-141.75"/><line class="cls-2" x1="-159.75" y1="110.25" x2="92.25" y2="-141.75"/><line class="cls-2" x1="-164.25" y1="110.25" x2="87.75" y2="-141.75"/><line class="cls-2" x1="-168.75" y1="110.25" x2="83.25" y2="-141.75"/><line class="cls-2" x1="-173.25" y1="110.25" x2="78.75" y2="-141.75"/><line class="cls-2" x1="-177.75" y1="110.25" x2="74.25" y2="-141.75"/><line class="cls-2" x1="-69.75" y1="105.75" x2="182.25" y2="-146.25"/><line class="cls-2" x1="-74.25" y1="105.75" x2="177.75" y2="-146.25"/><line class="cls-2" x1="-78.75" y1="105.75" x2="173.25" y2="-146.25"/><line class="cls-2" x1="-83.25" y1="105.75" x2="168.75" y2="-146.25"/><line class="cls-2" x1="-87.75" y1="105.75" x2="164.25" y2="-146.25"/><line class="cls-2" x1="-92.25" y1="105.75" x2="159.75" y2="-146.25"/><line class="cls-2" x1="-96.75" y1="105.75" x2="155.25" y2="-146.25"/><line class="cls-2" x1="-101.25" y1="105.75" x2="150.75" y2="-146.25"/><line class="cls-2" x1="-105.75" y1="105.75" x2="146.25" y2="-146.25"/><line class="cls-2" x1="-110.25" y1="105.75" x2="141.75" y2="-146.25"/><line class="cls-2" x1="-114.75" y1="105.75" x2="137.25" y2="-146.25"/><line class="cls-2" x1="-119.25" y1="105.75" x2="132.75" y2="-146.25"/><line class="cls-2" x1="-123.75" y1="105.75" x2="128.25" y2="-146.25"/><line class="cls-2" x1="-128.25" y1="105.75" x2="123.75" y2="-146.25"/><line class="cls-2" x1="-132.75" y1="105.75" x2="119.25" y2="-146.25"/><line class="cls-2" x1="-137.25" y1="105.75" x2="114.75" y2="-146.25"/><line class="cls-2" x1="-141.75" y1="105.75" x2="110.25" y2="-146.25"/><line class="cls-2" x1="-146.25" y1="105.75" x2="105.75" y2="-146.25"/><line class="cls-2" x1="-150.75" y1="105.75" x2="101.25" y2="-146.25"/><line class="cls-2" x1="-155.25" y1="105.75" x2="96.75" y2="-146.25"/><line class="cls-2" x1="-159.75" y1="105.75" x2="92.25" y2="-146.25"/><line class="cls-2" x1="-164.25" y1="105.75" x2="87.75" y2="-146.25"/><line class="cls-2" x1="-168.75" y1="105.75" x2="83.25" y2="-146.25"/><line class="cls-2" x1="-173.25" y1="105.75" x2="78.75" y2="-146.25"/><line class="cls-2" x1="-177.75" y1="105.75" x2="74.25" y2="-146.25"/><line class="cls-2" x1="-69.75" y1="101.25" x2="182.25" y2="-150.75"/><line class="cls-2" x1="-74.25" y1="101.25" x2="177.75" y2="-150.75"/><line class="cls-2" x1="-78.75" y1="101.25" x2="173.25" y2="-150.75"/><line class="cls-2" x1="-83.25" y1="101.25" x2="168.75" y2="-150.75"/><line class="cls-2" x1="-87.75" y1="101.25" x2="164.25" y2="-150.75"/><line class="cls-2" x1="-92.25" y1="101.25" x2="159.75" y2="-150.75"/><line class="cls-2" x1="-96.75" y1="101.25" x2="155.25" y2="-150.75"/><line class="cls-2" x1="-101.25" y1="101.25" x2="150.75" y2="-150.75"/><line class="cls-2" x1="-105.75" y1="101.25" x2="146.25" y2="-150.75"/><line class="cls-2" x1="-110.25" y1="101.25" x2="141.75" y2="-150.75"/><line class="cls-2" x1="-114.75" y1="101.25" x2="137.25" y2="-150.75"/><line class="cls-2" x1="-119.25" y1="101.25" x2="132.75" y2="-150.75"/><line class="cls-2" x1="-123.75" y1="101.25" x2="128.25" y2="-150.75"/><line class="cls-2" x1="-128.25" y1="101.25" x2="123.75" y2="-150.75"/><line class="cls-2" x1="-132.75" y1="101.25" x2="119.25" y2="-150.75"/><line class="cls-2" x1="-137.25" y1="101.25" x2="114.75" y2="-150.75"/><line class="cls-2" x1="-141.75" y1="101.25" x2="110.25" y2="-150.75"/><line class="cls-2" x1="-146.25" y1="101.25" x2="105.75" y2="-150.75"/><line class="cls-2" x1="-150.75" y1="101.25" x2="101.25" y2="-150.75"/><line class="cls-2" x1="-155.25" y1="101.25" x2="96.75" y2="-150.75"/><line class="cls-2" x1="-159.75" y1="101.25" x2="92.25" y2="-150.75"/><line class="cls-2" x1="-164.25" y1="101.25" x2="87.75" y2="-150.75"/><line class="cls-2" x1="-168.75" y1="101.25" x2="83.25" y2="-150.75"/><line class="cls-2" x1="-173.25" y1="101.25" x2="78.75" y2="-150.75"/><line class="cls-2" x1="-177.75" y1="101.25" x2="74.25" y2="-150.75"/><line class="cls-2" x1="-69.75" y1="96.75" x2="182.25" y2="-155.25"/><line class="cls-2" x1="-74.25" y1="96.75" x2="177.75" y2="-155.25"/><line class="cls-2" x1="-78.75" y1="96.75" x2="173.25" y2="-155.25"/><line class="cls-2" x1="-83.25" y1="96.75" x2="168.75" y2="-155.25"/><line class="cls-2" x1="-87.75" y1="96.75" x2="164.25" y2="-155.25"/><line class="cls-2" x1="-92.25" y1="96.75" x2="159.75" y2="-155.25"/><line class="cls-2" x1="-96.75" y1="96.75" x2="155.25" y2="-155.25"/><line class="cls-2" x1="-101.25" y1="96.75" x2="150.75" y2="-155.25"/><line class="cls-2" x1="-105.75" y1="96.75" x2="146.25" y2="-155.25"/><line class="cls-2" x1="-110.25" y1="96.75" x2="141.75" y2="-155.25"/><line class="cls-2" x1="-114.75" y1="96.75" x2="137.25" y2="-155.25"/><line class="cls-2" x1="-119.25" y1="96.75" x2="132.75" y2="-155.25"/><line class="cls-2" x1="-123.75" y1="96.75" x2="128.25" y2="-155.25"/><line class="cls-2" x1="-128.25" y1="96.75" x2="123.75" y2="-155.25"/><line class="cls-2" x1="-132.75" y1="96.75" x2="119.25" y2="-155.25"/><line class="cls-2" x1="-137.25" y1="96.75" x2="114.75" y2="-155.25"/><line class="cls-2" x1="-141.75" y1="96.75" x2="110.25" y2="-155.25"/><line class="cls-2" x1="-146.25" y1="96.75" x2="105.75" y2="-155.25"/><line class="cls-2" x1="-150.75" y1="96.75" x2="101.25" y2="-155.25"/><line class="cls-2" x1="-155.25" y1="96.75" x2="96.75" y2="-155.25"/><line class="cls-2" x1="-159.75" y1="96.75" x2="92.25" y2="-155.25"/><line class="cls-2" x1="-164.25" y1="96.75" x2="87.75" y2="-155.25"/><line class="cls-2" x1="-168.75" y1="96.75" x2="83.25" y2="-155.25"/><line class="cls-2" x1="-173.25" y1="96.75" x2="78.75" y2="-155.25"/><line class="cls-2" x1="-177.75" y1="96.75" x2="74.25" y2="-155.25"/><line class="cls-2" x1="-69.75" y1="92.25" x2="182.25" y2="-159.75"/><line class="cls-2" x1="-74.25" y1="92.25" x2="177.75" y2="-159.75"/><line class="cls-2" x1="-78.75" y1="92.25" x2="173.25" y2="-159.75"/><line class="cls-2" x1="-83.25" y1="92.25" x2="168.75" y2="-159.75"/><line class="cls-2" x1="-87.75" y1="92.25" x2="164.25" y2="-159.75"/><line class="cls-2" x1="-92.25" y1="92.25" x2="159.75" y2="-159.75"/><line class="cls-2" x1="-96.75" y1="92.25" x2="155.25" y2="-159.75"/><line class="cls-2" x1="-101.25" y1="92.25" x2="150.75" y2="-159.75"/><line class="cls-2" x1="-105.75" y1="92.25" x2="146.25" y2="-159.75"/><line class="cls-2" x1="-110.25" y1="92.25" x2="141.75" y2="-159.75"/><line class="cls-2" x1="-114.75" y1="92.25" x2="137.25" y2="-159.75"/><line class="cls-2" x1="-119.25" y1="92.25" x2="132.75" y2="-159.75"/><line class="cls-2" x1="-123.75" y1="92.25" x2="128.25" y2="-159.75"/><line class="cls-2" x1="-128.25" y1="92.25" x2="123.75" y2="-159.75"/><line class="cls-2" x1="-132.75" y1="92.25" x2="119.25" y2="-159.75"/><line class="cls-2" x1="-137.25" y1="92.25" x2="114.75" y2="-159.75"/><line class="cls-2" x1="-141.75" y1="92.25" x2="110.25" y2="-159.75"/><line class="cls-2" x1="-146.25" y1="92.25" x2="105.75" y2="-159.75"/><line class="cls-2" x1="-150.75" y1="92.25" x2="101.25" y2="-159.75"/><line class="cls-2" x1="-155.25" y1="92.25" x2="96.75" y2="-159.75"/><line class="cls-2" x1="-159.75" y1="92.25" x2="92.25" y2="-159.75"/><line class="cls-2" x1="-164.25" y1="92.25" x2="87.75" y2="-159.75"/><line class="cls-2" x1="-168.75" y1="92.25" x2="83.25" y2="-159.75"/><line class="cls-2" x1="-173.25" y1="92.25" x2="78.75" y2="-159.75"/><line class="cls-2" x1="-177.75" y1="92.25" x2="74.25" y2="-159.75"/><line class="cls-2" x1="-69.75" y1="87.75" x2="182.25" y2="-164.25"/><line class="cls-2" x1="-74.25" y1="87.75" x2="177.75" y2="-164.25"/><line class="cls-2" x1="-78.75" y1="87.75" x2="173.25" y2="-164.25"/><line class="cls-2" x1="-83.25" y1="87.75" x2="168.75" y2="-164.25"/><line class="cls-2" x1="-87.75" y1="87.75" x2="164.25" y2="-164.25"/><line class="cls-2" x1="-92.25" y1="87.75" x2="159.75" y2="-164.25"/><line class="cls-2" x1="-96.75" y1="87.75" x2="155.25" y2="-164.25"/><line class="cls-2" x1="-101.25" y1="87.75" x2="150.75" y2="-164.25"/><line class="cls-2" x1="-105.75" y1="87.75" x2="146.25" y2="-164.25"/><line class="cls-2" x1="-110.25" y1="87.75" x2="141.75" y2="-164.25"/><line class="cls-2" x1="-114.75" y1="87.75" x2="137.25" y2="-164.25"/><line class="cls-2" x1="-119.25" y1="87.75" x2="132.75" y2="-164.25"/><line class="cls-2" x1="-123.75" y1="87.75" x2="128.25" y2="-164.25"/><line class="cls-2" x1="-128.25" y1="87.75" x2="123.75" y2="-164.25"/><line class="cls-2" x1="-132.75" y1="87.75" x2="119.25" y2="-164.25"/><line class="cls-2" x1="-137.25" y1="87.75" x2="114.75" y2="-164.25"/><line class="cls-2" x1="-141.75" y1="87.75" x2="110.25" y2="-164.25"/><line class="cls-2" x1="-146.25" y1="87.75" x2="105.75" y2="-164.25"/><line class="cls-2" x1="-150.75" y1="87.75" x2="101.25" y2="-164.25"/><line class="cls-2" x1="-155.25" y1="87.75" x2="96.75" y2="-164.25"/><line class="cls-2" x1="-159.75" y1="87.75" x2="92.25" y2="-164.25"/><line class="cls-2" x1="-164.25" y1="87.75" x2="87.75" y2="-164.25"/><line class="cls-2" x1="-168.75" y1="87.75" x2="83.25" y2="-164.25"/><line class="cls-2" x1="-173.25" y1="87.75" x2="78.75" y2="-164.25"/><line class="cls-2" x1="-177.75" y1="87.75" x2="74.25" y2="-164.25"/><line class="cls-2" x1="-69.75" y1="83.25" x2="182.25" y2="-168.75"/><line class="cls-2" x1="-74.25" y1="83.25" x2="177.75" y2="-168.75"/><line class="cls-2" x1="-78.75" y1="83.25" x2="173.25" y2="-168.75"/><line class="cls-2" x1="-83.25" y1="83.25" x2="168.75" y2="-168.75"/><line class="cls-2" x1="-87.75" y1="83.25" x2="164.25" y2="-168.75"/><line class="cls-2" x1="-92.25" y1="83.25" x2="159.75" y2="-168.75"/><line class="cls-2" x1="-96.75" y1="83.25" x2="155.25" y2="-168.75"/><line class="cls-2" x1="-101.25" y1="83.25" x2="150.75" y2="-168.75"/><line class="cls-2" x1="-105.75" y1="83.25" x2="146.25" y2="-168.75"/><line class="cls-2" x1="-110.25" y1="83.25" x2="141.75" y2="-168.75"/><line class="cls-2" x1="-114.75" y1="83.25" x2="137.25" y2="-168.75"/><line class="cls-2" x1="-119.25" y1="83.25" x2="132.75" y2="-168.75"/><line class="cls-2" x1="-123.75" y1="83.25" x2="128.25" y2="-168.75"/><line class="cls-2" x1="-128.25" y1="83.25" x2="123.75" y2="-168.75"/><line class="cls-2" x1="-132.75" y1="83.25" x2="119.25" y2="-168.75"/><line class="cls-2" x1="-137.25" y1="83.25" x2="114.75" y2="-168.75"/><line class="cls-2" x1="-141.75" y1="83.25" x2="110.25" y2="-168.75"/><line class="cls-2" x1="-146.25" y1="83.25" x2="105.75" y2="-168.75"/><line class="cls-2" x1="-150.75" y1="83.25" x2="101.25" y2="-168.75"/><line class="cls-2" x1="-155.25" y1="83.25" x2="96.75" y2="-168.75"/><line class="cls-2" x1="-159.75" y1="83.25" x2="92.25" y2="-168.75"/><line class="cls-2" x1="-164.25" y1="83.25" x2="87.75" y2="-168.75"/><line class="cls-2" x1="-168.75" y1="83.25" x2="83.25" y2="-168.75"/><line class="cls-2" x1="-173.25" y1="83.25" x2="78.75" y2="-168.75"/><line class="cls-2" x1="-177.75" y1="83.25" x2="74.25" y2="-168.75"/><line class="cls-2" x1="-69.75" y1="78.75" x2="182.25" y2="-173.25"/><line class="cls-2" x1="-74.25" y1="78.75" x2="177.75" y2="-173.25"/><line class="cls-2" x1="-78.75" y1="78.75" x2="173.25" y2="-173.25"/><line class="cls-2" x1="-83.25" y1="78.75" x2="168.75" y2="-173.25"/><line class="cls-2" x1="-87.75" y1="78.75" x2="164.25" y2="-173.25"/><line class="cls-2" x1="-92.25" y1="78.75" x2="159.75" y2="-173.25"/><line class="cls-2" x1="-96.75" y1="78.75" x2="155.25" y2="-173.25"/><line class="cls-2" x1="-101.25" y1="78.75" x2="150.75" y2="-173.25"/><line class="cls-2" x1="-105.75" y1="78.75" x2="146.25" y2="-173.25"/><line class="cls-2" x1="-110.25" y1="78.75" x2="141.75" y2="-173.25"/><line class="cls-2" x1="-114.75" y1="78.75" x2="137.25" y2="-173.25"/><line class="cls-2" x1="-119.25" y1="78.75" x2="132.75" y2="-173.25"/><line class="cls-2" x1="-123.75" y1="78.75" x2="128.25" y2="-173.25"/><line class="cls-2" x1="-128.25" y1="78.75" x2="123.75" y2="-173.25"/><line class="cls-2" x1="-132.75" y1="78.75" x2="119.25" y2="-173.25"/><line class="cls-2" x1="-137.25" y1="78.75" x2="114.75" y2="-173.25"/><line class="cls-2" x1="-141.75" y1="78.75" x2="110.25" y2="-173.25"/><line class="cls-2" x1="-146.25" y1="78.75" x2="105.75" y2="-173.25"/><line class="cls-2" x1="-150.75" y1="78.75" x2="101.25" y2="-173.25"/><line class="cls-2" x1="-155.25" y1="78.75" x2="96.75" y2="-173.25"/><line class="cls-2" x1="-159.75" y1="78.75" x2="92.25" y2="-173.25"/><line class="cls-2" x1="-164.25" y1="78.75" x2="87.75" y2="-173.25"/><line class="cls-2" x1="-168.75" y1="78.75" x2="83.25" y2="-173.25"/><line class="cls-2" x1="-173.25" y1="78.75" x2="78.75" y2="-173.25"/><line class="cls-2" x1="-177.75" y1="78.75" x2="74.25" y2="-173.25"/><line class="cls-2" x1="-69.75" y1="74.25" x2="182.25" y2="-177.75"/><line class="cls-2" x1="-74.25" y1="74.25" x2="177.75" y2="-177.75"/><line class="cls-2" x1="-78.75" y1="74.25" x2="173.25" y2="-177.75"/><line class="cls-2" x1="-83.25" y1="74.25" x2="168.75" y2="-177.75"/><line class="cls-2" x1="-87.75" y1="74.25" x2="164.25" y2="-177.75"/><line class="cls-2" x1="-92.25" y1="74.25" x2="159.75" y2="-177.75"/><line class="cls-2" x1="-96.75" y1="74.25" x2="155.25" y2="-177.75"/><line class="cls-2" x1="-101.25" y1="74.25" x2="150.75" y2="-177.75"/><line class="cls-2" x1="-105.75" y1="74.25" x2="146.25" y2="-177.75"/><line class="cls-2" x1="-110.25" y1="74.25" x2="141.75" y2="-177.75"/><line class="cls-2" x1="-114.75" y1="74.25" x2="137.25" y2="-177.75"/><line class="cls-2" x1="-119.25" y1="74.25" x2="132.75" y2="-177.75"/><line class="cls-2" x1="-123.75" y1="74.25" x2="128.25" y2="-177.75"/><line class="cls-2" x1="-128.25" y1="74.25" x2="123.75" y2="-177.75"/><line class="cls-2" x1="-132.75" y1="74.25" x2="119.25" y2="-177.75"/><line class="cls-2" x1="-137.25" y1="74.25" x2="114.75" y2="-177.75"/><line class="cls-2" x1="-141.75" y1="74.25" x2="110.25" y2="-177.75"/><line class="cls-2" x1="-146.25" y1="74.25" x2="105.75" y2="-177.75"/><line class="cls-2" x1="-150.75" y1="74.25" x2="101.25" y2="-177.75"/><line class="cls-2" x1="-155.25" y1="74.25" x2="96.75" y2="-177.75"/><line class="cls-2" x1="-159.75" y1="74.25" x2="92.25" y2="-177.75"/><line class="cls-2" x1="-164.25" y1="74.25" x2="87.75" y2="-177.75"/><line class="cls-2" x1="-168.75" y1="74.25" x2="83.25" y2="-177.75"/><line class="cls-2" x1="-173.25" y1="74.25" x2="78.75" y2="-177.75"/><line class="cls-2" x1="-177.75" y1="74.25" x2="74.25" y2="-177.75"/></pattern></defs><title>climate-change-2</title><g id="text"><text class="cls-3" transform="translate(408.63 37.59)">Climate Change</text></g><g id="excess"><path class="cls-4" d="M296.8,220.8c-105.88,0-191.7,85.83-191.7,191.71s85.82,191.7,191.7,191.7a190.85,190.85,0,0,0,84.39-19.53q.79-.38,1.58-.79a192.45,192.45,0,0,0,87.8-90.3.08.08,0,0,1,0,0l0-.06c1.2-2.58,2.33-5.2,3.43-7.84l.32-.74.18-.5c2-5.06,3.92-10.22,5.53-15.48l0-.13h0a191.37,191.37,0,0,0,8.4-56.29C488.51,306.63,402.67,220.8,296.8,220.8Zm172,130.45c0-1.8,2.16,1.27,2.16,1.27C470.73,354.68,468.75,353.05,468.75,351.25Z"/><path class="cls-5" d="M484.09,411.7c-.54-6.86-1.08-19.67-2.7-26.17s-2.52-19.13-2.52-19.13-4.34-7.76-5.77-1.45c0,0-8.49-10.46-4.34-9.38a6.87,6.87,0,0,1,5.06,4.33s6,2.89.72-7.39-9.74-26.7-16.59-34.46c0,0-11.37-20.39-13.35-19.67s-1.8,1.27,0,4.52,5.22,7.94,3.42,8.83-6.85-15.7-6.85-16.59-.91-5.41-2.34-1.8-2.16,1.26-2.16,1.26-2.71.18,0,2.53c0,0-.91,2.34-2,2.52s-2.71,5.77,1.44,6.67c0,0,2.34-.54,2.53-2.52s1.26-.9.72,3.43a27.42,27.42,0,0,0,2.88,5.41s-2-1.27-2,.18.91,2.52,2.89,5.24,5.77,7.58,5.41,10.1-4.15,0-4.15,0,2.36-3.25,1.27-3.61-2.71-.72-2.53,1.8c0,0-7.58-4.07-6.13,2.92a18.9,18.9,0,0,1-2,12.59s-1.27,4.51,3.06,5.41,2.53,1.27,2.53,2.7,3.79,0,3.79,0-.37,3.43-1.27,3.43-5.59,0-1.63,3.07c0,0,.36.72-.54,1.44s-.91.91-.36,2-4.16,4-4.16,4-1.44,1.26-5.58,1.44a5.94,5.94,0,0,0-1.09,4.15c.18,2.71-2.34-.72-2,5.41,0,0-1.45,3.79-2.34,4.34s-2.16,8.48-1.45,11.18c0,0-3.43,1.09-1.8,8.49,0,0-3.43,13.9,4.15,13.63,0,0,2,4.78,4,6.77s1.21,4.69,9.36,7.94c0,0,4.17.18,4.72-1.45s4.33.36,4.33.36,4,0,5.24-1.8,5.4-4.87,6.49-.36,5.06,2.34,5.06,2.34,1.26-1.45.9,5.24-1.27,15.52,1.09,17.5a19.64,19.64,0,0,1-2,11c-2.89,6-3.79,29-3.79,29a17.06,17.06,0,0,0-1.8,9.2s-1.63,5.24.72,5.24,1.89-6.32,7-13c4.93-6.46,3.08,2.43,3,3l0-.06,3.43-7.84.32-.74.18-.5,5.53-15.48,0-.13h0a40.92,40.92,0,0,1,.92-16.33C483.37,444,484.63,418.55,484.09,411.7Zm-13.17-59.18c-.18,2.16-2.16.54-2.16-1.27S470.91,352.51,470.91,352.51Zm-18.09-6.14c-4.75-1.8.77-6.13,3.3-9.74s9.38,11.73,9.38,11.73C463.88,348.18,457.56,348.18,452.82,346.37Z"/><path class="cls-5" d="M257.75,600s-4.92-5.28,1-6.52a73,73,0,0,1,21.65-.34c5.08.92,3.64-1.63,5.91-2s6.82.75,10.16,2.13,5.62,1.92,8.39.59,7-1.83,7.17.46,3.13-.62,3.13-.62,2.27.11,5.07.35,4.89.35,2.25-1.32-7.2-2.32-1.12-4.57S325,590,333.08,590s22.84-2.05,23.35-3,4.16-2.16,8.17-2.36,8-.84,11-2.75,7.5-1.41,7.21,2.61C382.76,584.48,324.51,615.86,257.75,600Z"/><path class="cls-5" d="M340.33,572.85s2.66,4.52,8.17-1.94C348.5,570.92,341.15,567.17,340.33,572.85Z"/><path class="cls-5" d="M308,387s3.79-4.33,0-4.33S304.2,385.89,308,387Z"/><path class="cls-5" d="M339.56,386.07c4.15-.18-.18-4.87-1.26-4.51s-4.51,1.8-2.35,3.25A5.89,5.89,0,0,0,339.56,386.07Z"/><path class="cls-5" d="M317.91,382.64s-5.77.35-3.61,1.17a18.59,18.59,0,0,0,7.94,1c3.43-.18,6.32-.27,7.4,0s4.87.64,3.43-3.31C333.07,381.54,322.06,378.67,317.91,382.64Z"/><path class="cls-5" d="M284.17,372.18s-1.8,2.17,3.25,2.17,2.55-4.51,7.59,0c0,0,4,1.8,5.58,1.8s3.43,2.53,5.77,2.17,5.7-2,1-3.79S303.5,368.75,295,370C295,370,287.06,365.86,284.17,372.18Z"/><path class="cls-5" d="M353.64,267.53s-8.66,1.26,3.07,5.23,13.35.36,7.4-2.62S354.58,267.33,353.64,267.53Z"/><path class="cls-5" d="M249.71,495.77s4.87-2.89,2.35-3.79-7.76,2-5.05,2.89S248.48,496.6,249.71,495.77Z"/><path class="cls-5" d="M281.1,446.52s1.26-6.32-1.26-4.51S277.86,448,281.1,446.52Z"/><path class="cls-5" d="M204.78,432.26s3.07-1.08-1.08-6.13-7-6-4.87-.9S202.8,431.9,204.78,432.26Z"/><path class="cls-5" d="M153.79,296s9.26-4.34,2.39-5.17S149.72,296.27,153.79,296Z"/><path class="cls-5" d="M151.37,311c2.1.53,3.25-2.65.84-2.65S145.6,309.51,151.37,311Z"/><path class="cls-5" d="M143.67,319.37c-.73-3.85-1.44-7.46-2-4.45s-1.2,4.93,0,5.05S143.83,320.18,143.67,319.37Z"/><path class="cls-5" d="M135.73,320c1.27.14,3.25-.27,1.8-3.12s-3.61-2.85-3.49-.56S133.09,319.77,135.73,320Z"/><path class="cls-5" d="M105.1,410.6s4.59,6.56,5.67,3.1-.18-22.4,2.89-25.11-1.08-3.25,4.87-3.79-1.44-5.89-1.8-9.62-.9-10.59.54-13.83,3.07-2.35,2.71,2.17,5.05-3.43,6.32-9,4-16.78,0-11.19c0,0-3.07,4.33-3.07,8.3s-4.15,1.44-.9-5.23,5.6-6.32,6-8.66,1.53-2.89,1.53-7.22,1.26-6.5-1.62-4.15-4.68,3.89-4.68,3.89S105,364.86,105.1,410.6Z"/><path class="cls-5" d="M216.33,504.07s2.71-4.15,0-4.33A2.17,2.17,0,1,0,216.33,504.07Z"/><path class="cls-5" d="M205.45,541.49s10.17-4.54,9.27-6.23,2.92.21,4.78-1.55,6-5,6-5a26.66,26.66,0,0,0-5.48-3.35c-3.12-1.4-6.82-7.1-5.94-.56s-3.53,8-7,10.16S188.84,544.17,205.45,541.49Z"/><path class="cls-5" d="M126.29,413.7s-3.25,3.7.72,8.15,3.26-.69,3.16-4.08S128.46,410.67,126.29,413.7Z"/><path class="cls-5" d="M120.34,415.48s.74-6.13-2.7-5.23S118.53,418.19,120.34,415.48Z"/><path class="cls-5" d="M126.11,410.16s3.43-.93-3.07-9.44a10.37,10.37,0,0,1-1.8-6.53c.36-3.61-4.31-3.79-3.6,2.89s3.42,9.2,5.4,12.09C123,409.17,121.6,415.66,126.11,410.16Z"/><path class="cls-5" d="M151.73,512.91s-3.79-2.53-5.41,0-9.74-1.44-13.71-12.45-10.1-11.19-4.69-18c0,0,3.07-2.17,2.89-4.33s-.72-2.17,1.08-2.53-2.17-3.43,2.89-4,5.23.18,5.05-3.43,1.26-2,5.41,0,5.05.36,7.76,5.23,8.84,4.69,8.48.72,0-6.5,2.35-6-.18,7.76,3.25,8.66,4.69,13.88,10.28,17.14,5.77,20.39,8.48,15.52,3.07,15.34-1.08,22-8.84.72-5.41,5.05,5.23,10.83-5.05-1.08S164.72,525,162,524.28,155.89,513.9,151.73,512.91Z"/><path class="cls-5" d="M107.24,441.3s5.52,6.12,4.79-4-1.31-25.79-6.79-17.14"/><path class="cls-5" d="M140.73,459.42s2.35.36,1.44-1.89S136.76,456.71,140.73,459.42Z"/><path class="cls-5" d="M146.32,456.89s1.89-1.71.54-3.16-3-1.62-3,0S144.43,457.25,146.32,456.89Z"/><path class="cls-5" d="M132.25,463.21s.9-2.8.72-3.34,1.08-.72,1.26-1.44.36-2.81-3.07-.5S128.73,462.66,132.25,463.21Z"/><path class="cls-5" d="M133.51,443.13s1.35,1.85,1.35-4.65,1.17-7-.68-6.32S129.9,438.31,133.51,443.13Z"/><path class="cls-5" d="M115.65,448.14s-.45.9-.81-1-2.85-.78-2.73.6.8,3.91,5.46,6.34a36.28,36.28,0,0,1,4.72,5.34c1.57,2.41,5.39,2.32,5.37-.74s-2.36-3.27-4.08-3.94S118.08,448.41,115.65,448.14Z"/><path class="cls-5" d="M116.35,442.73a11.27,11.27,0,0,0-1.52,2.26c-.36.9-1.8-5.23-1-12s1.32-7.22,2.51-8.84.29-6,3-3.52-.9,12.63,3.88,12.45,3.07-.31,4.87-1.15,2.26,4.21,1.35,4.85-6,.09-2.43,1.62,2.44,4.87,0,4,2.16,3.7,1.35,5.59c0,0,1.26,3.88-2.07,2.53s-3.49,2.44-4-3.79-1.24-11.46-2.41-5.14C119.88,441.55,120.13,444,116.35,442.73Z"/><path class="cls-5" d="M135.23,445.07s-5.6-1.17-4,1.71,1.44.63,4.42.9,3.55-.9,3.44-3.16,1.47-2.84,1.63,1.87,9.09,4,12.7,10.53c0,0-2.89,3.92,1.17,5.82s2.71,2.53,4.24,2.89,3.61,1.53,4.6-1.08,5.5-1.26,6.13-.45,3.52,5.86,6.86,6,3.88,1.17,3.88,0-4.15-2.53-4.33-4.6-3.7-2.89-2.8-5.14-.45-2.53,3.07-2,6.77,1.88,6.77-.5.81-.43,1.53-3.16,3.07-5.09.45-5.63-2.8-.45-3.52,2.26,2.62,3.88-.45,3.88-13.17-1.44-14-3.61-5.59-2.8-6.5-4.24-5.14-1.08-6-3.07-2.07-1.17-4.15-.09-4.6,2.82-6-1.43-3.7-2.54-4.6-4.25-3-2.26-3,0S135,444.08,135.23,445.07Z"/><path class="cls-5" d="M147.35,442.82c1.3.22,2.58,1.17,2.31-.9s-1.91-4.51-2.31-2.44S145.67,442.53,147.35,442.82Z"/><path class="cls-5" d="M189.44,458.51s4.06-3,1.62-3.76S185.47,456.35,189.44,458.51Z"/><path class="cls-5" d="M200.54,465.46s4.87-1.53.9-3.16-3.52,3.75-.9,3.72"/><path class="cls-5" d="M422.56,459s-6-6-13.53-6.85l-10.64-4.52c-3.43-1.44-6.14-5.4-12.1-5,0,0,3.25-4.52,0-6.5a4.92,4.92,0,0,1-.36-4c.72-2.34-12.09-7.94-14.25-7.94s-12.81-6.49-13.72-11.63-2-2.62-5.22-3.7-3.43-4-4.52,0-7.22-2-11.91-3.07-6.86.73-9,0a13.91,13.91,0,0,0-12.09,2.17c-4.33,3.42-6.49,4.87-9.92,2.16,0,0-2.46-2-7.45,1.08s-7-6.85-7-10.28-.9-11-6.13-10.1-11-1-8.66-5.74,6.31-17.72-4.16-10.32c0,0-4.69-1.84-4.33,6.84,0,0-8.3,3.51-14.07-3.2s-7.22-12.48-1.09-17.71,8.3-7.94,12.63-7.94,6.31-.73,6.31-3.79,6.68,2,9.38.9,4.51,2.89,6.31,4.33a16.2,16.2,0,0,1,4.88,5.06c2.34,3.43,4.72,8.49,5.9,7.58s3.07-6,0-9.38c-7.35-8.18-3.67-10.34,4.74-21.65,1.07-1.42-.72-3.25.49-6.26,1.28-3.18-2.92-2.94-1.2-3.22s1.63-2,1.63-3.42-.45-.63,2.7-2.35,5.14-7.21,7.67-6.95,11.09-1.26,11.81-2.88,3.43-8,5.24-7.58,2.16,4,3.25,4,6.67-.81,5-4.52-2.52-6.4-7.22-5.86-4.33-4.6-5.77-5.32-7.58-6.59-10.2-8.67-10.19-7.22-10.56-9.38-2.07-3.16-2.16-8.75S292.92,251.83,292.47,250s-1-2.7,1.27-2.7,12.36,4.87,17.58,14a11.87,11.87,0,0,0,6.68,6.77c5.06,1.9,3.61,3.7,6.67,5.51s4.16,2.7,7.31,4.6,3.79,3.61,5,2.7.73-2.62-.26-5.24-1.63-15.78,2.25-14.88c0,0,6.29-4.78-3.35-9.47s-5.85-8.31-18.3-11.73c0,0-1.8-5.24-11.91-5.06s-.36-3.61,6.85-2.89,14.62-.72,17-.08,5.06,2.8,7.4,1.53,4.67-3.79-1-4-1.52-3.07-27.87-2.52a113.87,113.87,0,0,0-44.2,1.08c-23.81,5.41-24.9,3.61-28.69,6.32s-24.36,6.31-38.25,18.95,16.23-5.06,20-5.06,9.2-4.15,13.54-3.79c0,0,8.48-4.7,3.06.72s-.72,2.34-7.58,5.77,1.63,3.79,5.06,3.07,2,3.79-1.09,3.79-36.63-.73-43.12,8.66a9.26,9.26,0,0,0-6,8.31s-16.06,7.58-7.4,10.82c0,0-7.94,4.34-8.85,10.11,0,0-3.07,2.88-3.07,4.69s-10.46,3.79-6.67,7.22,3.25-4.51,18.22-11.91,18.77-11.37,19.32-5.06,0,18.95,3.42,6.86c0,0,2.53-3.25,2.53,5.4s3.61.73.54,10.47-5.06,10.83-3.25,21.11,9.2,10.28,9.2,15-.18,5.41,1.63,5.41-1.45,6.13,2.52,7.76,3.79,7.21,5.24,8.83,2.7,7.95,3.25,5.77-.72-13.71-6.68-19.48,4,0,4.33.54,9.93,27.24,17.51,25.89,1.8,1.9,4.87,3.17,6.5,4.69,14.08,4.15,19.31,7,19.31,7,7.58-.3,9.19,2.55,5.11,11.16,8.51,11.79,3.77,4.05,12.42,2.61c3.81-.63,5.26-1.22,5.71-1.48a1.62,1.62,0,0,0-.3,1.3s.91,10.11,3.43,11-4.51,6.13-6.13,6.68-.54,1.61-2,4.69-3.91-4.15-3.66,5.59c0,0-7,9.5,1.13,17.68,0,0,5.3,8.18,5.3,10.34s7,17.56,9.86,17.56,10.83,12.75,9.87,24.05-.49,12-3.12,25-5.54,10.1-3.85,19.24c0,0-5.41,3.73-.36,5.9,0,0-6.32,5.22.9,9.19s9.56,5.59,14.26,4,.36-5.06-1.09-5.06-2.88-3.79,2-5.41c0,0,2.09-2.52,1.22-4.51s-.87-.91,2.92-4.15,5.24-7.22,9.93-8.49,9.92-6.67,8.3-11.37c0,0,6,2,13.53-7,0,0,7-5.58,10.28-11,0,0,10.11-6.86,10.83-10.65s9.92-4.51,12.09-8.66,5.24-5.06,6.32-11.55a15.46,15.46,0,0,1,5.22-9.56s3.43-1.8,3.61-4.88S424.54,470.88,422.56,459ZM321.46,297.41c1.32-.44-.6,1.15,3.24,1.52s-1.8,8.18-1.8,8.18C320.62,307,320.13,297.84,321.46,297.41Zm-7.95-.65c3.61,2.41-1.08,2.17-1.08,2.17C307.63,297.48,309.92,294.36,313.52,296.75Zm-49.67-.36c-1.93.24-.84-4.21-.84-4.21-.18-4,1.45-1.44,2,0s2.77,0,5.31-1,2.14.73,2.14,2-1.92.39-2.64,1.61,2.28,1.67,1.07,2.47S265.76,296.15,263.84,296.39Zm11.77,7.71c-.95.6-10.57,3.21-9.49-1.89,0,0,3.43-3.41,5.57-1.6S276.56,303.5,275.61,304.1Zm15.54-7.71c-2.29-1.44,2-4.33,2.88-2.64S291.15,296.39,291.15,296.39ZM298.37,272c-1.57.36-15.28-.58-19.25-5.4,0,0-7.09-9.28-1.08-10.24s.36,4.45,6,3.37.37,2.89-1,3.37-1.92,5,5.9,5.53S299.93,271.62,298.37,272Zm-25.59-31.13s1.43-1.72,4.88,1.13c0,0,5.85,1.72,8.58,1.46s10.66,1.73,2.47,2.25-1.52,1.8-9.86-1.13C278.85,244.56,269.92,245.77,272.78,240.85Zm-2.08,13.29c1.91,0-.68,2.71-.68,2.71C267.17,257,268.79,254.18,270.7,254.14Zm-4.1,17.9c.84-3.18,1.8-5.12,3.75-2.71s7.08,1.29,7.08,1.29c1.8,5.86,7.94,5.69,8.18,9.78s1.56,5.29,1.56,5.29c1.57,5.29-2.41,5.66-5.34,6.38s-3-2.29-4.29-2.52-1.8-2.16-4-2.16-2.59-1-2.59-1c-.72-4.44-4.69-6.49-6.62-5.65s-2.77,1.92-4.25-1S265.76,275.23,266.61,272Zm-25-23.26c2.31,1.18-1.09,1.33-1.09,1.33-1.19.16-3.13-.08-3.95-1.33S239.35,247.61,241.66,248.78Zm-8.24,17.9c4.44,1,0,3.85,0,3.85C229,271.38,229,265.72,233.41,266.68Zm10.7,18.89c-.6-1.57,1.45-1.09,2.52-2.53s-5.66-6.13-5.41-2.64-2.16,4.08-2.16,4.08c-11.06-.84-3.67-4.08-3.67-4.08.74-.39,3.8-1.45-1.14-3.38s1.45-2.77,2.16-2.77,2.29-4.21,2.53-.72,5.29,2.52,10,1.56,6.73,1.92,4.08,4a14.21,14.21,0,0,0-4.81,7.16C247.73,288.34,244.72,287.14,244.12,285.57Z"/><text class="cls-6" transform="translate(43.09 560.82)">Food</text><text class="cls-6" transform="translate(502.91 561.33)"><tspan class="cls-7">W</tspan><tspan x="22.7" y="0">ater</tspan></text><text class="cls-8" transform="translate(465.27 586.1)">Increased demand <tspan x="21.16" y="20.76">30% by 2030 </tspan><tspan x="43.79" y="45.78" xml:space="preserve">(IFPRI)   </tspan></text><text class="cls-8" transform="translate(3.25 584.45)">Increased demand <tspan x="21.16" y="20.76">50% by 2030 </tspan><tspan x="48.59" y="45.78">(</tspan><tspan class="cls-9" x="54.35" y="45.78">F</tspan><tspan x="63.97" y="45.78" xml:space="preserve">AO)   </tspan></text><text class="cls-6" transform="translate(256.58 122.34)">Energy</text><text class="cls-8" transform="translate(227.05 149.07)">Increased demand <tspan x="21.16" y="20.76">50% by 2030 </tspan><tspan x="51.96" y="45.78" xml:space="preserve">(IEA)   </tspan></text><path class="cls-10" d="M50.53,490.68A260.09,260.09,0,0,1,172.69,181.35"/><path class="cls-10" d="M427.71,633.92a260.08,260.08,0,0,1-254.26,3.75"/><path class="cls-10" d="M424.47,182.83A260.08,260.08,0,0,1,543.36,492.46"/><polygon class="cls-11" points="183.62 175.18 180.28 182.22 176.95 189.26 172.54 181.4 168.12 173.53 175.87 174.36 183.62 175.18"/><polygon class="cls-11" points="413.61 177.1 421.33 176.11 429.06 175.12 424.82 183.08 420.57 191.03 417.09 184.07 413.61 177.1"/><polygon class="cls-11" points="539.84 501.77 537.85 494.24 535.85 486.71 544.3 489.87 552.74 493.03 546.29 497.4 539.84 501.77"/><polygon class="cls-11" points="439.31 627.68 435.98 634.72 432.65 641.76 428.23 633.89 423.82 626.03 431.56 626.85 439.31 627.68"/><polygon class="cls-11" points="162.32 631.13 170.08 630.51 177.85 629.9 173.22 637.64 168.59 645.38 165.46 638.25 162.32 631.13"/><polygon class="cls-11" points="55.06 503.28 48.68 498.81 42.3 494.33 50.8 491.31 59.3 488.29 57.18 495.78 55.06 503.28"/><text class="cls-12" transform="translate(711.3 557.2)"><tspan class="cls-13">	</tspan><tspan x="31.23" y="0">Global temperatures are quickly approaching </tspan><tspan x="0" y="21.6">the 2 degree Celsius (3.6 degree Fahrenheit) </tspan><tspan x="0" y="43.2">point at which the Intergovernmental Panel on </tspan><tspan x="0" y="64.8">Climate Change (IPCC) indicates global warming </tspan><tspan x="0" y="86.4">will cause serious impacts on human life and the </tspan><tspan x="0" y="108">natural systems we rely on. </tspan></text><line class="cls-14" x1="735.74" y1="440.74" x2="1063.3" y2="440.74"/><text class="cls-15" transform="translate(708.38 445.38)">0.0</text><text class="cls-15" transform="translate(708.38 399.16)">0.6</text><text class="cls-15" transform="translate(708.38 356.27)">1.2</text><line class="cls-16" x1="735.74" y1="462.82" x2="735.74" y2="151.49"/><line class="cls-17" x1="735.74" y1="418.67" x2="1063.41" y2="418.67"/><line class="cls-17" x1="735.74" y1="396.6" x2="1063.3" y2="396.6"/><line class="cls-17" x1="735.74" y1="374.53" x2="1063.41" y2="374.53"/><line class="cls-17" x1="735.74" y1="352.46" x2="1063.41" y2="352.46"/><line class="cls-17" x1="735.74" y1="330.39" x2="1063.3" y2="330.39"/><line class="cls-18" x1="809.81" y1="438.1" x2="759.14" y2="461.93"/><line class="cls-18" x1="860.49" y1="436.77" x2="809.81" y2="438.1"/><line class="cls-18" x1="911.16" y1="406.31" x2="860.49" y2="436.77"/><line class="cls-18" x1="961.84" y1="383.8" x2="911.16" y2="406.31"/><line class="cls-18" x1="1012.51" y1="385.13" x2="961.84" y2="383.8"/><line class="cls-18" x1="1063.19" y1="348.05" x2="1012.51" y2="385.13"/><text class="cls-15" transform="translate(1022.25 478.52)">2010</text><text class="cls-15" transform="translate(975.43 478.52)">2000</text><text class="cls-15" transform="translate(928.62 478.52)">1990</text><text class="cls-15" transform="translate(881.8 478.52)">1980</text><text class="cls-15" transform="translate(834.99 478.52)">1970</text><text class="cls-15" transform="translate(788.17 478.52)">1960</text><text class="cls-15" transform="translate(741.35 478.52)">1950</text><line class="cls-18" x1="735.74" y1="462.9" x2="1063.3" y2="462.9"/><g class="cls-19"><line class="cls-18" x1="735.74" y1="462.9" x2="735.74" y2="459.59"/><line class="cls-18" x1="782.54" y1="462.9" x2="782.54" y2="459.59"/><line class="cls-18" x1="829.33" y1="462.9" x2="829.33" y2="459.59"/><line class="cls-18" x1="876.13" y1="462.9" x2="876.13" y2="459.59"/><line class="cls-18" x1="922.92" y1="462.9" x2="922.92" y2="459.59"/><line class="cls-18" x1="969.71" y1="462.9" x2="969.71" y2="459.59"/><line class="cls-18" x1="1016.51" y1="462.9" x2="1016.51" y2="459.59"/><line class="cls-18" x1="1063.3" y1="462.9" x2="1063.3" y2="459.59"/></g><text class="cls-20" transform="translate(998.02 504.35)">Source: E<tspan class="cls-21" x="51.13" y="0">P</tspan><tspan class="cls-22" x="58.04" y="0">A</tspan></text><text class="cls-23" transform="translate(682.62 408.79) rotate(-90)"><tspan class="cls-24">T</tspan><tspan x="7" y="0">emperature</tspan><tspan class="cls-25" x="78.59" y="0"> </tspan><tspan x="81.72" y="0">Anomaly (F)</tspan></text><line class="cls-17" x1="735.74" y1="308.23" x2="1063.3" y2="308.23"/><line class="cls-17" x1="735.74" y1="285.99" x2="1063.41" y2="285.99"/><line class="cls-17" x1="735.74" y1="263.92" x2="1063.3" y2="263.92"/><line class="cls-17" x1="735.74" y1="241.76" x2="1063.3" y2="241.76"/><text class="cls-15" transform="translate(708.38 312.96)">1.8</text><text class="cls-15" transform="translate(708.38 269.24)">2.4</text><text class="cls-15" transform="translate(708.38 224.69)">3.0</text><text class="cls-15" transform="translate(708.38 180.13)">3.6</text><line class="cls-17" x1="735.74" y1="219.6" x2="1063.3" y2="219.6"/><line class="cls-17" x1="735.74" y1="197.35" x2="1063.41" y2="197.35"/><line class="cls-26" x1="735.74" y1="175.28" x2="1063.3" y2="175.28"/><line class="cls-17" x1="735.74" y1="153.04" x2="1063.41" y2="153.04"/><text class="cls-27" transform="translate(743.07 122)"><tspan class="cls-28">T</tspan><tspan x="13.96" y="0">emperatures </tspan><tspan class="cls-29" x="177.26" y="0">W</tspan><tspan x="201.35" y="0">orldwide</tspan></text><text class="cls-23" transform="translate(1088.97 171.3)">Point at which <tspan x="0" y="16">human life and </tspan><tspan x="0" y="32">natural systems </tspan><tspan x="0" y="48">are dramatically </tspan><tspan x="0" y="64">a</tspan><tspan class="cls-29" x="7.79" y="64">f</tspan><tspan x="11.43" y="64">fected</tspan></text><text class="cls-23" transform="translate(1088.97 351.3)">Now</text><text class="cls-30" transform="translate(1089.97 295.11)"><tspan class="cls-31">2</tspan><tspan x="7.79" y="0"> </tspan><tspan class="cls-31" x="11.68" y="0">F di</tspan><tspan class="cls-32" x="40.61" y="0">f</tspan><tspan class="cls-31" x="44.26" y="0">ference </tspan></text><rect class="cls-31" x="1104.59" y="245.91" width="0.88" height="30.84"/><polygon class="cls-31" points="1106.71 246.8 1103.53 246.8 1105.03 242.82 1106.71 246.8"/><rect class="cls-31" x="1104.68" y="302.75" width="0.88" height="29.41"/><polygon class="cls-31" points="1103.44 331.28 1106.62 331.28 1105.12 335.25 1103.44 331.28"/><circle class="cls-31" cx="1063.41" cy="348.05" r="4.28"/><circle class="cls-31" cx="1063.41" cy="175.05" r="4.28"/></g></svg>